<?xml version="1.0" standalone="no"?> 
<!DOCTYPE svg PUBLIC "-//W3C//DTD SVG 1.1//EN" "http://www.w3.org/Graphics/SVG/1.1/DTD/svg11.dtd"> 
<svg xmlns="http://www.w3.org/2000/svg" width="646" height="554" viewBox="0 0 646 554">
	<g id="rooms">
		<path data-room="0630" fill="#fff" d="M128 49h74v100h-74z"/>
		<path data-room="0600" fill="#fff" d="M204 102h74v47h-74z"/>
		<path data-room="0505" fill="#fff" d="M624 149h-239v-99h10v-28h229z"/>
		<path data-room="0700" fill="#fff" d="M281 311h83v81h-83z"/>
		<path data-room="0615" fill="#fff" d="M230 50h59v28h-59z"/>
		<path data-room="0006" fill="#fff" d="M280 100h83v75h-83z"/>
	</g>
	<g>
		<path fill="none" stroke="#231F20" stroke-width="2" d="M388.919 339.601c0-1.913-1.55-3.462-3.463-3.462-1.912 0-3.465 1.549-3.465 3.462 0 1.913 1.553 3.465 3.465 3.465 1.913 0 3.463-1.552 3.463-3.465zm-3.919 16.399v10.655s.456 2.345 2.104 2.345h.199s1.697-.699 1.697-2.345v-20.654999999999998m-4 10v10.655c0 1.646-1.191 2.345-1.191 2.345h-.198c-1.648 0-2.61-2.345-2.61-2.345v-20.655m-.001 8.194c0 1.648-.687 1.806-.687 1.806h-.197c-1.648 0-2.116-1.962-2.116-1.962v-9.322c0-1.647 2.116-.716 2.116-.716h10.681000000000001c1.647 0 1.203.716 1.203.716v9.322c0 1.648-1.203 1.962-1.203 1.962h-.198c-1.649 0-1.649-1.727-1.649-1.727M253.824 351.486l-.673 2.715s-.396 1.599-1.995 1.203l-.194-.048s-1.599-.396-1.203-1.995l1.583-6.398.501-1.562c.466-1.901 2.831-1.402 2.831-1.402h6.386000000000001s2.364-.499 2.831 1.402l.498 1.795 1.585 6.281c.396 1.599-1.204 1.936-1.204 1.936l-.191.02c-1.601.396-1.996-1.218-1.996-1.218l-.673-2.723m-.578-11.889c0-1.913-1.551-3.465-3.461-3.465-1.915 0-3.465 1.553-3.465 3.465s1.55 3.462 3.465 3.462c1.91-.001 3.461-1.55 3.461-3.462zm-3.332 20.397v6.655s-.129 2.345-1.778 2.345h-.198s-2.023-.697-2.023-2.345v-6.655h-2.203l3.891-13.405m2.311 13.405v6.655s.871 2.345 2.519 2.345h.198s1.283-.697 1.283-2.345v-6.655h2.94l-4.761-13.405"/><path fill="none" d="M20 20h606v501h-606z"/><path fill="none" stroke="#231F20" stroke-width="2" d="M153 500h171M280 310v83h85v-83M364 270h42"/><path fill="none" stroke="#231F20" stroke-width="2" d="M364 202h42v68h-42zM406 202h-41M406 249h-41"/><path fill="none" stroke="#231F20" stroke-width="2" d="M311 206h23v64h-23zM322 206v64M310 217h24M310 222h24M310 227h24M310 233h24M310 238h24M310 243h24M310 249h24M310 254h24M310 260h24M310 265h13M322 211h12"/><path fill="none" stroke="#231F20" stroke-width="1.865" d="M318.67 212.328l-2.321-2.321-2.323 2.321M325.713 264.262l2.322 2.322 2.322-2.322"/><path fill="none" stroke="#231F20" stroke-width="2" d="M406 225h-41M203 69v82"/><path fill="none" stroke="#231F20" stroke-width="1.865" d="M387.747 211.329l-3.511-4.023-3.511 4.022M380.979 215.184l3.51 4.023 3.512-4.023M387.747 234.703l-3.511-4.023-3.511 4.022M380.979 238.558l3.51 4.023 3.512-4.023M387.747 257.57l-3.511-4.023-3.511 4.021M380.979 261.425l3.51 4.023 3.512-4.023"/><path fill="none" stroke="#231F20" stroke-width="2" d="M154 202h125v68h-125zM192 174v29M310 202h25M625 224v-203h-251"/><path fill="none" d="M20 20h606v501h-606z"/><path fill="none" stroke="#231F20" stroke-width="2" d="M305 500h183M539 21h-416.339l-99.503 153h241.842M364 174h262"/><path fill="none" d="M20 20h606v501h-606z"/><path fill="none" stroke="#231F20" stroke-width="2" d="M364 100v75M279 100v75M290 49h-163v102M203 101h39M266 101h12"/><path fill="none" stroke="#231F20" stroke-width="2" d="M290 49h74v30h-74zM384 150h242"/><path fill="none" d="M20 20h606v501h-606z"/><path fill="none" stroke="#231F20" stroke-width="2" d="M384 100v51M364 101h20M126 150h153M239 310h-85M359 49h36M394 21v28"/><path fill="none" d="M20 20h606v501h-606z"/><path fill="none" stroke="#231F20" stroke-width="2" d="M365 309v84h41v-83h-16M406 269v54M255 310h-16v83h41v-84M488 499v21h137v-296"/><path fill="none" d="M20 20h606v501h-606z"/><path fill="none" stroke="#231F20" stroke-width="1.865" d="M504.014 173.577"/><path fill="none" stroke="#231F20" stroke-width="2" d="M154 366h-133v153h133v-19"/><path fill="none" d="M20 20h606v501h-606z"/><path fill="none" stroke="#231F20" stroke-width="2" d="M154 270v96M290 49h-61v30h13M266 79h24"/><path fill="none" stroke="#231F20" stroke-width="1.865" d="M406.229 270.153"/><path fill="none" stroke="#231F20" stroke-width="2" d="M314 310h-15M347 310h-15M153.439 192.478l4.022-3.512-4.022-3.509M157 189h-23"/><path fill="#231F20" d="M124.471 194c.071 0 .11.739.11 1.111 0 3.019-2.457 5.488-5.476 5.488-3.018 0-5.477-2.453-5.477-5.471 0-2.356 1.497-4.37 3.59-5.138l-.117-1.41c-2.805.859-4.85 3.472-4.85 6.554 0 3.779 3.075 6.851 6.854 6.851s6.852-3.095 6.852-6.874c0-.371-.029-1.111-.089-1.111h-1.397z"/><circle fill="none" stroke="#231F20" cx="118.817" cy="181.059" r="1.839"/><path fill="none" d="M20 20h606v501h-606z"/><path fill="none" stroke="#231F20" d="M119 189.5h7m-7.184-6.219l.646 9.219h7.902l2.475 6.618 2.27-.618"/><g fill="#231F20"><path d="M145.147 101.914c0-3.007.937-6.464 4.592-6.464 3.691 0 4.52 3.421 4.52 6.464 0 3.025-.883 6.356-4.537 6.356-3.764.001-4.575-3.313-4.575-6.356zm6.933 0c0-2.431-.54-4.771-2.377-4.771s-2.377 2.287-2.377 4.735c0 2.449.505 4.718 2.359 4.718 1.819 0 2.395-2.215 2.395-4.682zM156.56 102.311c0-3.817 1.476-6.86 4.807-6.86 3.386 0 3.817 2.737 3.817 2.719l-1.944.271c0 .018-.414-1.387-1.999-1.387-1.548 0-2.61 1.494-2.736 4.447.378-.685 1.242-1.692 2.988-1.692 2.215 0 3.854 1.566 3.854 4.249 0 2.755-1.999 4.231-4.195 4.231-3.531-.001-4.592-2.828-4.592-5.978zm6.769 1.692c0-1.53-1.026-2.521-2.251-2.521-1.224 0-2.25.99-2.25 2.521 0 1.566.882 2.665 2.25 2.665 1.567 0 2.251-1.297 2.251-2.665zM166.909 105.011l2.07-.197c-.036.216.342 1.836 2.232 1.836 1.459 0 2.27-.918 2.27-2.143 0-1.422-.9-2.431-3.331-2.251v-1.638c2.106.18 3.007-.702 3.007-1.909 0-1.026-.757-1.692-1.837-1.71-1.908 0-2.07 1.638-2.07 1.674l-1.927-.216s.234-3.007 3.997-3.007c2.106 0 3.925.937 3.925 3.151 0 1.314-.738 2.214-1.836 2.755 1.422.54 2.215 1.638 2.215 3.097 0 2.629-2.125 3.817-4.321 3.817-4.214.001-4.394-3.259-4.394-3.259zM177.745 101.914c0-3.007.937-6.464 4.592-6.464 3.691 0 4.52 3.421 4.52 6.464 0 3.025-.883 6.356-4.537 6.356-3.764.001-4.575-3.313-4.575-6.356zm6.933 0c0-2.431-.54-4.771-2.377-4.771s-2.377 2.287-2.377 4.735c0 2.449.505 4.718 2.359 4.718 1.819 0 2.395-2.215 2.395-4.682z"/>
    </g>
    <g fill="#231F20">
    	<path d="M238.001 65.914c0-3.007.937-6.464 4.592-6.464 3.691 0 4.52 3.421 4.52 6.464 0 3.025-.883 6.356-4.537 6.356-3.764.001-4.575-3.313-4.575-6.356zm6.933 0c0-2.431-.54-4.771-2.377-4.771s-2.377 2.287-2.377 4.735c0 2.449.505 4.718 2.359 4.718 1.818 0 2.395-2.215 2.395-4.682zM249.413 66.311c0-3.817 1.476-6.86 4.807-6.86 3.386 0 3.817 2.737 3.817 2.719l-1.944.271c0 .018-.414-1.387-1.999-1.387-1.548 0-2.61 1.494-2.736 4.447.378-.685 1.242-1.692 2.988-1.692 2.215 0 3.854 1.566 3.854 4.249 0 2.755-1.999 4.231-4.195 4.231-3.53-.001-4.592-2.828-4.592-5.978zm6.77 1.692c0-1.53-1.026-2.521-2.251-2.521-1.224 0-2.25.99-2.25 2.521 0 1.566.882 2.665 2.25 2.665 1.566 0 2.251-1.297 2.251-2.665zM262.392 62.151c-.612.45-1.495.792-2.251.864l-.216-1.765c1.116-.162 2.034-.774 2.539-1.495h1.998v12.245h-2.143l.073-9.849zM267.502 69.245l2.125-.234s.306 1.585 2.179 1.585c1.477 0 2.358-.937 2.358-2.467 0-1.566-.954-2.521-2.448-2.521-1.026 0-1.656.54-1.963 1.134l-1.998-.738.792-6.193 6.878-.055v1.783h-5.203l-.469 3.169c.45-.378 1.188-.774 2.484-.774 2.684 0 4.069 1.818 4.069 4.213 0 2.089-1.188 4.124-4.429 4.124-3.96 0-4.375-3.026-4.375-3.026z"/></g><g fill="#231F20"><path d="M218.562 125.914c0-3.007.937-6.464 4.592-6.464 3.691 0 4.52 3.421 4.52 6.464 0 3.025-.883 6.356-4.537 6.356-3.764.001-4.575-3.313-4.575-6.356zm6.933 0c0-2.431-.54-4.771-2.377-4.771-1.836 0-2.377 2.287-2.377 4.735 0 2.449.505 4.718 2.359 4.718 1.819 0 2.395-2.215 2.395-4.682zM229.976 126.311c0-3.817 1.476-6.86 4.807-6.86 3.386 0 3.817 2.737 3.817 2.719l-1.944.271c0 .018-.414-1.387-1.999-1.387-1.548 0-2.61 1.494-2.736 4.447.378-.685 1.242-1.692 2.988-1.692 2.215 0 3.854 1.566 3.854 4.249 0 2.755-1.999 4.231-4.195 4.231-3.531-.001-4.592-2.828-4.592-5.978zm6.769 1.692c0-1.53-1.026-2.521-2.251-2.521-1.224 0-2.25.99-2.25 2.521 0 1.566.882 2.665 2.25 2.665 1.567 0 2.251-1.297 2.251-2.665zM240.882 125.914c0-3.007.937-6.464 4.592-6.464 3.691 0 4.52 3.421 4.52 6.464 0 3.025-.883 6.356-4.537 6.356-3.765.001-4.575-3.313-4.575-6.356zm6.932 0c0-2.431-.54-4.771-2.377-4.771s-2.377 2.287-2.377 4.735c0 2.449.505 4.718 2.359 4.718 1.819 0 2.395-2.215 2.395-4.682zM252.33 125.914c0-3.007.937-6.464 4.592-6.464 3.691 0 4.52 3.421 4.52 6.464 0 3.025-.883 6.356-4.537 6.356-3.764.001-4.575-3.313-4.575-6.356zm6.933 0c0-2.431-.54-4.771-2.377-4.771-1.836 0-2.377 2.287-2.377 4.735 0 2.449.505 4.718 2.359 4.718 1.819 0 2.395-2.215 2.395-4.682z"/></g><g fill="#231F20"><path d="M301.562 143.914c0-3.007.937-6.464 4.592-6.464 3.691 0 4.52 3.421 4.52 6.464 0 3.025-.883 6.356-4.537 6.356-3.764.001-4.575-3.313-4.575-6.356zm6.933 0c0-2.431-.54-4.771-2.377-4.771-1.836 0-2.377 2.287-2.377 4.735 0 2.449.505 4.718 2.359 4.718 1.819 0 2.395-2.215 2.395-4.682zM313.011 143.914c0-3.007.937-6.464 4.592-6.464 3.691 0 4.52 3.421 4.52 6.464 0 3.025-.883 6.356-4.537 6.356-3.765.001-4.575-3.313-4.575-6.356zm6.932 0c0-2.431-.54-4.771-2.377-4.771s-2.377 2.287-2.377 4.735c0 2.449.505 4.718 2.359 4.718 1.819 0 2.395-2.215 2.395-4.682zM324.458 143.914c0-3.007.937-6.464 4.592-6.464 3.691 0 4.52 3.421 4.52 6.464 0 3.025-.883 6.356-4.537 6.356-3.764.001-4.575-3.313-4.575-6.356zm6.933 0c0-2.431-.54-4.771-2.377-4.771s-2.377 2.287-2.377 4.735c0 2.449.505 4.718 2.359 4.718 1.818 0 2.395-2.215 2.395-4.682zM335.87 144.311c0-3.817 1.476-6.86 4.807-6.86 3.386 0 3.817 2.737 3.817 2.719l-1.944.271c0 .018-.414-1.387-1.999-1.387-1.548 0-2.61 1.494-2.736 4.447.378-.685 1.242-1.692 2.988-1.692 2.215 0 3.854 1.566 3.854 4.249 0 2.755-1.999 4.231-4.195 4.231-3.53-.001-4.592-2.828-4.592-5.978zm6.77 1.692c0-1.53-1.026-2.521-2.251-2.521-1.224 0-2.25.99-2.25 2.521 0 1.566.882 2.665 2.25 2.665 1.566 0 2.251-1.297 2.251-2.665z"/></g><g fill="#231F20"><path d="M302.579 354.914c0-3.007.937-6.464 4.592-6.464 3.691 0 4.52 3.421 4.52 6.464 0 3.025-.883 6.356-4.537 6.356-3.764.001-4.575-3.313-4.575-6.356zm6.933 0c0-2.431-.54-4.771-2.377-4.771s-2.377 2.287-2.377 4.735c0 2.449.505 4.718 2.359 4.718 1.819 0 2.395-2.215 2.395-4.682zM313.307 348.811h7.796v1.548c-.414.757-3.007 5.564-4.789 10.642h-2.179c1.549-4.268 3.187-7.526 4.771-10.389h-5.6v-1.801zM322.865 354.914c0-3.007.937-6.464 4.592-6.464 3.691 0 4.52 3.421 4.52 6.464 0 3.025-.883 6.356-4.537 6.356-3.764.001-4.575-3.313-4.575-6.356zm6.933 0c0-2.431-.54-4.771-2.377-4.771-1.836 0-2.377 2.287-2.377 4.735 0 2.449.505 4.718 2.359 4.718 1.819 0 2.395-2.215 2.395-4.682zM334.312 354.914c0-3.007.937-6.464 4.592-6.464 3.691 0 4.52 3.421 4.52 6.464 0 3.025-.883 6.356-4.537 6.356-3.764.001-4.575-3.313-4.575-6.356zm6.933 0c0-2.431-.54-4.771-2.377-4.771-1.836 0-2.377 2.287-2.377 4.735 0 2.449.505 4.718 2.359 4.718 1.819 0 2.395-2.215 2.395-4.682z"/></g><g fill="#231F20"><path d="M485.174 85.954c0-3.007.937-6.464 4.592-6.464 3.691 0 4.52 3.421 4.52 6.464 0 3.025-.883 6.356-4.537 6.356-3.765 0-4.575-3.313-4.575-6.356zm6.932 0c0-2.431-.54-4.771-2.377-4.771-1.836 0-2.377 2.287-2.377 4.735 0 2.449.505 4.718 2.359 4.718 1.819-.001 2.395-2.216 2.395-4.682zM496.334 89.285l2.125-.234s.306 1.585 2.179 1.585c1.477 0 2.358-.937 2.358-2.467 0-1.566-.954-2.521-2.448-2.521-1.026 0-1.656.54-1.963 1.134l-1.998-.738.792-6.193 6.878-.055v1.783h-5.203l-.469 3.169c.45-.378 1.188-.774 2.484-.774 2.684 0 4.069 1.818 4.069 4.213 0 2.089-1.188 4.124-4.429 4.124-3.96-.001-4.375-3.026-4.375-3.026zM507.17 85.954c0-3.007.937-6.464 4.592-6.464 3.691 0 4.52 3.421 4.52 6.464 0 3.025-.883 6.356-4.537 6.356-3.765 0-4.575-3.313-4.575-6.356zm6.933 0c0-2.431-.54-4.771-2.377-4.771-1.836 0-2.377 2.287-2.377 4.735 0 2.449.505 4.718 2.359 4.718 1.818-.001 2.395-2.216 2.395-4.682zM518.329 89.285l2.125-.234s.307 1.585 2.179 1.585c1.477 0 2.358-.937 2.358-2.467 0-1.566-.954-2.521-2.448-2.521-1.026 0-1.656.54-1.963 1.134l-1.998-.738.792-6.193 6.878-.055v1.783h-5.204l-.468 3.169c.45-.378 1.188-.774 2.485-.774 2.683 0 4.068 1.818 4.068 4.213 0 2.089-1.188 4.124-4.429 4.124-3.961-.001-4.375-3.026-4.375-3.026z"/></g>
	</g>
</svg>          