<?xml version="1.0" standalone="no"?> 
<!DOCTYPE svg PUBLIC "-//W3C//DTD SVG 1.1//EN" "http://www.w3.org/Graphics/SVG/1.1/DTD/svg11.dtd">  
<svg xmlns="http://www.w3.org/2000/svg" width="1194" height="991" viewBox="0 0 1194 991">
    <g id="rooms">
        <path data-room="3620" fill="#fff" d="M224 21h98v253h-98z"/>
        <path data-room="3610" fill="#fff" d="M324 21h121v253h-121z"/>
        <path data-room="3600" fill="#fff" d="M447 21h119v253h-119z"/>
        <path data-room="3500" fill="#fff" d="M568 21h456v253h-456z"/>
        <path data-room="3740" fill="#fff" d="M345 311h100v167h-100z"/>
        <path data-room="3440" fill="#fff" d="M752 311h100v167h-100z"/>
        <path data-room="3570" fill="#fff" d="M523 276h152v79h-152z"/>
        <path data-room="3700" fill="#fff" d="M279 480h129v206h-129z"/>
        <path data-room="3400" fill="#fff" d="M786 480h129v206h-129z"/>
        <path data-room="3710" fill="#fff" d="M410 536h47v223h-47z"/>
        <path data-room="3410" fill="#fff" d="M734 536h50v223h-50z"/>
        <path data-room="3200" fill="#fff" d="M457 759h277v70h-277z"/>
        <path data-room="3460" fill="#fff" d="M457 481h277v56h-277z"/>
    </g>
    <g>
        <path fill="none" stroke="#231F20" stroke-width="2" d="M409 496v-17h-131v208h131v-13M785 536v105M853 480v-169M409.039 686.38v111.442M785 687v110"/><path fill="none" stroke="#231F20" stroke-width="2" d="M676 275h75v205h-75zM751 356h-75M751 441h-75M751 356h-75M751 399h-75M567 49v187M717.381 373.285l-6.365-7.289-6.363 7.289M705.114 380.274l6.365 7.289 6.358-7.289M717.381 415.652l-6.365-7.289-6.363 7.289M705.114 422.639l6.365 7.291 6.358-7.291M717.381 457.098l-6.365-7.293-6.363 7.293M705.114 464.084l6.365 7.292 6.358-7.292"/><path fill="none" stroke="#231F20" stroke-width="2" d="M446 275h76v205h-76zM916 830l-638 .033v-143.033h-258v284h258v-34h638v34h258v-284h-258zM344 310v169M569 275h56M323 49v187M446 49v187M569 356h56M1025 275h-240v35h240v-290h-802v290h188v-35h-188M409 640v-104M785 675v12h131v-208h-131v18"/><g fill="#231F20"><path d="M570.264 791.64l2.943-.281c-.051.307.486 2.61 3.173 2.61 2.073 0 3.224-1.306 3.224-3.045 0-2.021-1.279-3.455-4.733-3.199v-2.328c2.993.256 4.273-.998 4.273-2.713 0-1.458-1.075-2.405-2.61-2.431-2.713 0-2.942 2.328-2.942 2.38l-2.738-.308s.333-4.273 5.681-4.273c2.994 0 5.578 1.331 5.578 4.479 0 1.868-1.049 3.147-2.609 3.915 2.021.768 3.146 2.329 3.146 4.401 0 3.736-3.019 5.425-6.141 5.425-5.989-.001-6.245-4.632-6.245-4.632zM585.102 793.738c3.148-3.045 8.291-8.111 8.291-10.799 0-1.382-.717-2.481-2.533-2.508-2.072 0-2.559 1.74-2.635 2.764l-3.02-.281c.256-2.124 1.766-4.862 5.834-4.862 2.917 0 5.425 1.51 5.425 4.812 0 3.659-4.556 7.933-7.498 10.594l7.754-.052v2.482h-11.618v-2.15zM599.657 787.238c0-4.273 1.331-9.187 6.525-9.187 5.246 0 6.423 4.862 6.423 9.187 0 4.299-1.254 9.033-6.448 9.033-5.348 0-6.5-4.708-6.5-9.033zm9.852 0c0-3.454-.768-6.78-3.377-6.78-2.61 0-3.378 3.249-3.378 6.729s.716 6.704 3.352 6.704c2.584.001 3.403-3.147 3.403-6.653zM615.927 787.238c0-4.273 1.331-9.187 6.525-9.187 5.246 0 6.423 4.862 6.423 9.187 0 4.299-1.254 9.033-6.448 9.033-5.349 0-6.5-4.708-6.5-9.033zm9.851 0c0-3.454-.768-6.78-3.377-6.78-2.61 0-3.378 3.249-3.378 6.729s.716 6.704 3.352 6.704c2.585.001 3.403-3.147 3.403-6.653z"/></g><g fill="#231F20"><path d="M568.869 512.752l2.943-.281c-.051.307.486 2.61 3.173 2.61 2.073 0 3.224-1.306 3.224-3.046 0-2.021-1.279-3.454-4.733-3.198v-2.329c2.993.257 4.273-.997 4.273-2.712 0-1.458-1.075-2.405-2.61-2.431-2.713 0-2.942 2.328-2.942 2.38l-2.738-.308s.333-4.273 5.681-4.273c2.994 0 5.578 1.331 5.578 4.479 0 1.868-1.049 3.147-2.609 3.915 2.021.768 3.146 2.329 3.146 4.401 0 3.736-3.019 5.425-6.141 5.425-5.989 0-6.245-4.632-6.245-4.632zM583.119 510.296l7.189-10.696h3.967l-.025 10.363 2.738-.025v2.405h-2.764v4.657h-2.789v-4.657h-8.316v-2.047zm8.342-.308l.051-7.958-5.246 8.01 5.195-.052zM599.159 508.914c0-5.425 2.098-9.75 6.832-9.75 4.811 0 5.425 3.891 5.425 3.864l-2.764.384c0 .025-.589-1.971-2.84-1.971-2.201 0-3.711 2.125-3.89 6.32.537-.972 1.766-2.404 4.247-2.404 3.147 0 5.477 2.226 5.477 6.039 0 3.914-2.841 6.013-5.962 6.013-5.015 0-6.525-4.016-6.525-8.495zm9.621 2.405c0-2.175-1.458-3.583-3.198-3.583s-3.199 1.408-3.199 3.583c0 2.226 1.254 3.787 3.199 3.787 2.226 0 3.198-1.842 3.198-3.787zM614.405 508.352c0-4.273 1.331-9.188 6.525-9.188 5.246 0 6.423 4.862 6.423 9.188 0 4.299-1.254 9.032-6.448 9.032-5.348 0-6.5-4.708-6.5-9.032zm9.852 0c0-3.455-.768-6.781-3.377-6.781-2.61 0-3.378 3.25-3.378 6.729s.716 6.704 3.352 6.704c2.584 0 3.403-3.148 3.403-6.652z"/></g><g fill="#231F20"><path d="M568.869 323.752l2.943-.282c-.051.307.486 2.61 3.173 2.61 2.073 0 3.224-1.305 3.224-3.045 0-2.021-1.279-3.455-4.733-3.199v-2.329c2.993.256 4.273-.998 4.273-2.712 0-1.458-1.075-2.405-2.61-2.431-2.713 0-2.942 2.329-2.942 2.38l-2.738-.307s.333-4.273 5.681-4.273c2.994 0 5.578 1.331 5.578 4.478 0 1.868-1.049 3.147-2.609 3.915 2.021.768 3.146 2.329 3.146 4.401 0 3.736-3.019 5.425-6.141 5.425-5.989.001-6.245-4.631-6.245-4.631zM583.861 324.085l3.02-.333s.435 2.251 3.096 2.251c2.098 0 3.352-1.331 3.352-3.505 0-2.227-1.355-3.583-3.479-3.583-1.458 0-2.354.768-2.789 1.612l-2.841-1.049 1.126-8.803 9.775-.077v2.533h-7.396l-.665 4.503c.64-.537 1.688-1.1 3.531-1.1 3.812 0 5.783 2.584 5.783 5.988 0 2.968-1.688 5.86-6.295 5.86-5.63.002-6.218-4.297-6.218-4.297zM597.981 310.676h11.08v2.201c-.589 1.075-4.273 7.907-6.807 15.123h-3.097c2.201-6.064 4.529-10.696 6.781-14.765h-7.958v-2.559zM611.31 319.351c0-4.273 1.331-9.187 6.525-9.187 5.246 0 6.423 4.862 6.423 9.187 0 4.299-1.254 9.033-6.448 9.033-5.349 0-6.5-4.709-6.5-9.033zm9.851 0c0-3.455-.768-6.781-3.377-6.781-2.61 0-3.378 3.25-3.378 6.73s.716 6.704 3.352 6.704c2.585 0 3.403-3.148 3.403-6.653z"/></g><g fill="#231F20"><path d="M242.863 153.07l2.943-.282c-.051.307.486 2.61 3.173 2.61 2.073 0 3.224-1.305 3.224-3.045 0-2.021-1.279-3.455-4.734-3.199v-2.329c2.994.256 4.273-.998 4.273-2.712 0-1.458-1.075-2.405-2.61-2.431-2.712 0-2.942 2.329-2.942 2.38l-2.738-.307s.333-4.273 5.681-4.273c2.994 0 5.579 1.331 5.579 4.478 0 1.868-1.049 3.147-2.61 3.915 2.022.768 3.147 2.329 3.147 4.401 0 3.736-3.019 5.425-6.141 5.425-5.989 0-6.245-4.631-6.245-4.631zM258.212 149.231c0-5.425 2.098-9.75 6.832-9.75 4.811 0 5.425 3.89 5.425 3.864l-2.764.384c0 .026-.588-1.97-2.84-1.97-2.201 0-3.71 2.124-3.89 6.32.538-.972 1.766-2.405 4.248-2.405 3.147 0 5.476 2.226 5.476 6.039 0 3.915-2.84 6.013-5.962 6.013-5.015.001-6.525-4.017-6.525-8.495zm9.621 2.406c0-2.175-1.458-3.583-3.198-3.583s-3.199 1.407-3.199 3.583c0 2.226 1.254 3.787 3.199 3.787 2.226 0 3.198-1.842 3.198-3.787zM273.279 155.168c3.147-3.045 8.291-8.112 8.291-10.799 0-1.382-.717-2.482-2.533-2.507-2.073 0-2.559 1.74-2.636 2.763l-3.02-.281c.256-2.124 1.766-4.862 5.834-4.862 2.917 0 5.425 1.51 5.425 4.811 0 3.659-4.555 7.933-7.498 10.594l7.753-.051v2.482h-11.618v-2.15zM287.835 148.668c0-4.273 1.331-9.187 6.525-9.187 5.246 0 6.423 4.862 6.423 9.187 0 4.299-1.254 9.033-6.448 9.033-5.348 0-6.5-4.708-6.5-9.033zm9.853 0c0-3.455-.768-6.781-3.378-6.781-2.61 0-3.377 3.25-3.377 6.73s.716 6.704 3.352 6.704c2.584 0 3.403-3.147 3.403-6.653z"/></g><g fill="#231F20"><path d="M355.68 153.07l2.943-.282c-.051.307.486 2.61 3.173 2.61 2.073 0 3.224-1.305 3.224-3.045 0-2.021-1.279-3.455-4.734-3.199v-2.329c2.994.256 4.273-.998 4.273-2.712 0-1.458-1.075-2.405-2.61-2.431-2.712 0-2.942 2.329-2.942 2.38l-2.738-.307s.333-4.273 5.681-4.273c2.994 0 5.579 1.331 5.579 4.478 0 1.868-1.049 3.147-2.61 3.915 2.022.768 3.147 2.329 3.147 4.401 0 3.736-3.019 5.425-6.141 5.425-5.989 0-6.245-4.631-6.245-4.631zM371.03 149.231c0-5.425 2.098-9.75 6.832-9.75 4.811 0 5.425 3.89 5.425 3.864l-2.764.384c0 .026-.588-1.97-2.84-1.97-2.201 0-3.71 2.124-3.89 6.32.538-.972 1.766-2.405 4.248-2.405 3.147 0 5.476 2.226 5.476 6.039 0 3.915-2.84 6.013-5.962 6.013-5.015.001-6.525-4.017-6.525-8.495zm9.621 2.406c0-2.175-1.458-3.583-3.198-3.583s-3.199 1.407-3.199 3.583c0 2.226 1.254 3.787 3.199 3.787 2.226 0 3.198-1.842 3.198-3.787zM389.372 143.32c-.87.64-2.124 1.126-3.199 1.228l-.307-2.508c1.587-.23 2.892-1.1 3.608-2.124h2.84v17.4h-3.045l.103-13.996zM397.045 148.668c0-4.273 1.331-9.187 6.525-9.187 5.246 0 6.424 4.862 6.424 9.187 0 4.299-1.254 9.033-6.449 9.033-5.348 0-6.5-4.708-6.5-9.033zm9.852 0c0-3.455-.768-6.781-3.378-6.781-2.61 0-3.377 3.25-3.377 6.73s.716 6.704 3.352 6.704c2.584 0 3.403-3.147 3.403-6.653z"/></g><g fill="#231F20"><path d="M470.801 153.07l2.943-.282c-.051.307.486 2.61 3.173 2.61 2.073 0 3.224-1.305 3.224-3.045 0-2.021-1.279-3.455-4.733-3.199v-2.329c2.993.256 4.273-.998 4.273-2.712 0-1.458-1.075-2.405-2.61-2.431-2.713 0-2.942 2.329-2.942 2.38l-2.738-.307s.333-4.273 5.681-4.273c2.994 0 5.578 1.331 5.578 4.478 0 1.868-1.049 3.147-2.609 3.915 2.021.768 3.146 2.329 3.146 4.401 0 3.736-3.019 5.425-6.141 5.425-5.989 0-6.245-4.631-6.245-4.631zM486.15 149.231c0-5.425 2.099-9.75 6.832-9.75 4.811 0 5.426 3.89 5.426 3.864l-2.764.384c0 .026-.589-1.97-2.841-1.97-2.2 0-3.71 2.124-3.89 6.32.537-.972 1.766-2.405 4.248-2.405 3.147 0 5.477 2.226 5.477 6.039 0 3.915-2.841 6.013-5.963 6.013-5.015.001-6.525-4.017-6.525-8.495zm9.621 2.406c0-2.175-1.458-3.583-3.197-3.583-1.74 0-3.199 1.407-3.199 3.583 0 2.226 1.254 3.787 3.199 3.787 2.226 0 3.197-1.842 3.197-3.787zM501.652 148.668c0-4.273 1.332-9.187 6.525-9.187 5.246 0 6.424 4.862 6.424 9.187 0 4.299-1.254 9.033-6.449 9.033-5.347 0-6.5-4.708-6.5-9.033zm9.853 0c0-3.455-.768-6.781-3.378-6.781-2.609 0-3.377 3.25-3.377 6.73s.716 6.704 3.352 6.704c2.584 0 3.403-3.147 3.403-6.653zM517.923 148.668c0-4.273 1.331-9.187 6.525-9.187 5.245 0 6.423 4.862 6.423 9.187 0 4.299-1.254 9.033-6.448 9.033-5.349 0-6.5-4.708-6.5-9.033zm9.852 0c0-3.455-.768-6.781-3.379-6.781-2.609 0-3.377 3.25-3.377 6.73s.717 6.704 3.352 6.704c2.585 0 3.404-3.147 3.404-6.653z"/></g><g fill="#231F20"><path d="M766.148 150.716l2.942-.282c-.051.307.486 2.61 3.173 2.61 2.073 0 3.225-1.305 3.225-3.045 0-2.021-1.279-3.455-4.734-3.199v-2.329c2.994.256 4.273-.998 4.273-2.712 0-1.458-1.074-2.405-2.609-2.431-2.713 0-2.943 2.329-2.943 2.38l-2.737-.307s.332-4.273 5.681-4.273c2.993 0 5.578 1.331 5.578 4.478 0 1.868-1.049 3.147-2.61 3.915 2.021.768 3.147 2.329 3.147 4.401 0 3.736-3.02 5.425-6.142 5.425-5.988.001-6.244-4.631-6.244-4.631zM781.14 151.049l3.02-.333s.435 2.251 3.096 2.251c2.099 0 3.353-1.331 3.353-3.505 0-2.227-1.356-3.583-3.48-3.583-1.458 0-2.354.768-2.789 1.612l-2.84-1.049 1.126-8.803 9.774-.077v2.533h-7.395l-.666 4.503c.64-.537 1.689-1.1 3.531-1.1 3.813 0 5.783 2.584 5.783 5.988 0 2.968-1.688 5.86-6.295 5.86-5.629.002-6.218-4.297-6.218-4.297zM796.54 146.315c0-4.273 1.331-9.187 6.525-9.187 5.246 0 6.423 4.862 6.423 9.187 0 4.299-1.254 9.033-6.448 9.033-5.349 0-6.5-4.709-6.5-9.033zm9.852 0c0-3.455-.768-6.781-3.377-6.781-2.61 0-3.378 3.25-3.378 6.73s.716 6.704 3.352 6.704c2.584 0 3.403-3.148 3.403-6.653zM812.81 146.315c0-4.273 1.331-9.187 6.525-9.187 5.246 0 6.423 4.862 6.423 9.187 0 4.299-1.254 9.033-6.448 9.033-5.349 0-6.5-4.709-6.5-9.033zm9.851 0c0-3.455-.768-6.781-3.377-6.781-2.61 0-3.378 3.25-3.378 6.73s.716 6.704 3.352 6.704c2.585 0 3.403-3.148 3.403-6.653z"/></g><g fill="#231F20"><path d="M443.964 665.644l-.282-2.942c.308.051 2.611-.486 2.611-3.173 0-2.073-1.306-3.225-3.046-3.225-2.021 0-3.454 1.279-3.198 4.734h-2.329c.256-2.994-.997-4.273-2.712-4.273-1.459 0-2.406 1.074-2.432 2.609 0 2.713 2.329 2.943 2.381 2.943l-.308 2.737s-4.273-.332-4.273-5.681c0-2.993 1.331-5.578 4.478-5.578 1.869 0 3.148 1.049 3.916 2.61.768-2.021 2.328-3.147 4.4-3.147 3.736 0 5.426 3.02 5.426 6.142 0 5.988-4.632 6.244-4.632 6.244zM430.888 651.496v-11.08h2.2c1.075.589 7.907 4.273 15.123 6.807v3.097c-6.064-2.201-10.695-4.529-14.764-6.781v7.958h-2.559zM434.215 634.968c.639.87 1.125 2.124 1.228 3.199l-2.508.307c-.229-1.586-1.101-2.892-2.124-3.607v-2.841h17.4v3.045l-13.996-.103zM439.562 627.294c-4.273 0-9.187-1.331-9.187-6.525 0-5.246 4.862-6.423 9.187-6.423 4.299 0 9.033 1.254 9.033 6.448.001 5.349-4.708 6.5-9.033 6.5zm0-9.852c-3.455 0-6.781.768-6.781 3.377 0 2.61 3.25 3.378 6.73 3.378 3.479 0 6.703-.716 6.703-3.352.001-2.584-3.146-3.403-6.652-3.403z"/></g><g fill="#231F20"><path d="M313.163 595.157l2.943-.281c-.051.307.486 2.61 3.173 2.61 2.073 0 3.224-1.306 3.224-3.045 0-2.021-1.279-3.455-4.734-3.199v-2.328c2.994.256 4.273-.998 4.273-2.713 0-1.458-1.075-2.405-2.61-2.431-2.712 0-2.942 2.328-2.942 2.38l-2.738-.308s.333-4.272 5.681-4.272c2.994 0 5.579 1.33 5.579 4.478 0 1.868-1.049 3.147-2.61 3.915 2.022.768 3.147 2.329 3.147 4.401 0 3.736-3.02 5.425-6.141 5.425-5.989 0-6.245-4.632-6.245-4.632zM327.284 582.082h11.08v2.2c-.588 1.074-4.273 7.907-6.807 15.123h-3.096c2.201-6.064 4.529-10.696 6.781-14.765h-7.958v-2.558zM340.51 590.756c0-4.273 1.331-9.186 6.525-9.186 5.246 0 6.423 4.861 6.423 9.186 0 4.299-1.254 9.033-6.448 9.033-5.348 0-6.5-4.708-6.5-9.033zm9.852 0c0-3.454-.768-6.78-3.378-6.78-2.61 0-3.377 3.249-3.377 6.729s.716 6.704 3.352 6.704c2.584 0 3.403-3.147 3.403-6.653zM356.78 590.756c0-4.273 1.331-9.186 6.525-9.186 5.246 0 6.423 4.861 6.423 9.186 0 4.299-1.254 9.033-6.448 9.033-5.348 0-6.5-4.708-6.5-9.033zm9.852 0c0-3.454-.768-6.78-3.378-6.78-2.61 0-3.377 3.249-3.377 6.729s.716 6.704 3.352 6.704c2.584 0 3.403-3.147 3.403-6.653z"/></g><g fill="#231F20"><path d="M824.49 595.157l2.942-.281c-.051.307.486 2.61 3.173 2.61 2.073 0 3.225-1.306 3.225-3.045 0-2.021-1.279-3.455-4.734-3.199v-2.328c2.994.256 4.273-.998 4.273-2.713 0-1.458-1.074-2.405-2.609-2.431-2.713 0-2.943 2.328-2.943 2.38l-2.737-.308s.332-4.272 5.681-4.272c2.993 0 5.578 1.33 5.578 4.478 0 1.868-1.049 3.147-2.61 3.915 2.021.768 3.147 2.329 3.147 4.401 0 3.736-3.02 5.425-6.142 5.425-5.988 0-6.244-4.632-6.244-4.632zM838.995 592.701l7.19-10.696h3.967l-.026 10.363 2.738-.025v2.405h-2.764v4.657h-2.789v-4.657h-8.316v-2.047zm8.342-.307l.052-7.958-5.246 8.01 5.194-.052zM855.342 590.756c0-4.273 1.331-9.186 6.525-9.186 5.246 0 6.423 4.861 6.423 9.186 0 4.299-1.254 9.033-6.448 9.033-5.349 0-6.5-4.708-6.5-9.033zm9.851 0c0-3.454-.768-6.78-3.377-6.78-2.61 0-3.378 3.249-3.378 6.729s.716 6.704 3.352 6.704c2.585 0 3.403-3.147 3.403-6.653zM871.611 590.756c0-4.273 1.331-9.186 6.525-9.186 5.246 0 6.423 4.861 6.423 9.186 0 4.299-1.254 9.033-6.448 9.033-5.348 0-6.5-4.708-6.5-9.033zm9.852 0c0-3.454-.768-6.78-3.377-6.78-2.61 0-3.378 3.249-3.378 6.729s.716 6.704 3.352 6.704c2.585 0 3.403-3.147 3.403-6.653z"/></g><g fill="#231F20"><path d="M768.521 396.116l2.942-.282c-.051.307.486 2.61 3.173 2.61 2.073 0 3.225-1.305 3.225-3.045 0-2.021-1.279-3.455-4.734-3.199v-2.329c2.994.256 4.273-.998 4.273-2.712 0-1.458-1.074-2.405-2.609-2.431-2.713 0-2.943 2.329-2.943 2.38l-2.737-.307s.332-4.273 5.681-4.273c2.993 0 5.578 1.331 5.578 4.478 0 1.868-1.049 3.147-2.61 3.915 2.021.768 3.147 2.329 3.147 4.401 0 3.736-3.02 5.425-6.142 5.425-5.988 0-6.244-4.631-6.244-4.631zM783.026 393.659l7.19-10.696h3.967l-.026 10.363 2.738-.025v2.405h-2.764v4.657h-2.789v-4.657h-8.316v-2.047zm8.342-.307l.052-7.958-5.246 8.01 5.194-.052zM798.324 393.659l7.19-10.696h3.967l-.026 10.363 2.738-.025v2.405h-2.764v4.657h-2.789v-4.657h-8.316v-2.047zm8.342-.307l.052-7.958-5.246 8.01 5.194-.052zM814.671 391.714c0-4.273 1.331-9.187 6.525-9.187 5.246 0 6.423 4.862 6.423 9.187 0 4.299-1.254 9.033-6.448 9.033-5.349 0-6.5-4.708-6.5-9.033zm9.851 0c0-3.455-.768-6.781-3.377-6.781-2.61 0-3.378 3.25-3.378 6.73s.716 6.704 3.352 6.704c2.585 0 3.403-3.147 3.403-6.653z"/></g><g fill="#231F20"><path d="M366.118 396.116l2.943-.282c-.051.307.486 2.61 3.173 2.61 2.073 0 3.224-1.305 3.224-3.045 0-2.021-1.279-3.455-4.734-3.199v-2.329c2.994.256 4.273-.998 4.273-2.712 0-1.458-1.075-2.405-2.61-2.431-2.712 0-2.942 2.329-2.942 2.38l-2.738-.307s.333-4.273 5.681-4.273c2.994 0 5.579 1.331 5.579 4.478 0 1.868-1.049 3.147-2.61 3.915 2.022.768 3.147 2.329 3.147 4.401 0 3.736-3.02 5.425-6.141 5.425-5.989 0-6.245-4.631-6.245-4.631zM380.239 383.04h11.08v2.201c-.588 1.075-4.273 7.907-6.807 15.123h-3.096c2.201-6.064 4.529-10.696 6.781-14.765h-7.958v-2.559zM392.314 393.659l7.19-10.696h3.966l-.025 10.363 2.738-.025v2.405h-2.764v4.657h-2.79v-4.657h-8.316v-2.047zm8.342-.307l.051-7.958-5.246 8.01 5.195-.052zM408.66 391.714c0-4.273 1.332-9.187 6.525-9.187 5.246 0 6.424 4.862 6.424 9.187 0 4.299-1.254 9.033-6.449 9.033-5.348 0-6.5-4.708-6.5-9.033zm9.853 0c0-3.455-.768-6.781-3.378-6.781-2.609 0-3.377 3.25-3.377 6.73s.716 6.704 3.352 6.704c2.583 0 3.403-3.147 3.403-6.653z"/></g><g fill="#231F20"><path d="M762.891 665.64l-.281-2.942c.307.051 2.61-.486 2.61-3.173 0-2.073-1.306-3.225-3.045-3.225-2.021 0-3.455 1.279-3.199 4.734h-2.328c.256-2.994-.998-4.273-2.713-4.273-1.458 0-2.405 1.074-2.431 2.609 0 2.713 2.328 2.943 2.38 2.943l-.308 2.737s-4.273-.332-4.273-5.681c0-2.993 1.331-5.578 4.479-5.578 1.868 0 3.147 1.049 3.915 2.61.768-2.021 2.329-3.147 4.401-3.147 3.736 0 5.425 3.02 5.425 6.142-.001 5.988-4.632 6.244-4.632 6.244zM760.435 651.159l-10.696-7.19v-3.967l10.363.026-.025-2.738h2.405v2.764h4.657v2.789h-4.657v8.316h-2.047zm-.308-8.342l-7.958-.052 8.01 5.246-.052-5.194zM753.142 631.971c.64.87 1.126 2.124 1.229 3.199l-2.508.307c-.23-1.586-1.101-2.892-2.124-3.607v-2.841h17.4v3.045l-13.997-.103zM758.489 624.297c-4.273 0-9.187-1.331-9.187-6.525 0-5.246 4.862-6.423 9.187-6.423 4.299 0 9.033 1.254 9.033 6.448 0 5.349-4.708 6.5-9.033 6.5zm0-9.852c-3.454 0-6.78.768-6.78 3.377 0 2.61 3.249 3.378 6.729 3.378s6.704-.716 6.704-3.352c.001-2.584-3.147-3.403-6.653-3.403z"/></g><g fill="none" stroke-width="2"><path stroke="#000" d="M597 364v116M597 373h18M579 382h36M579 391h36M579 400h36M579 409h36M579 418h36M579 427h36M579 436h36M579 445h36M579 454h36M579 463h36M579 472h18"/><path stroke="#231F20" d="M591.331 374.508l-3.63-4.092-3.63 4.092M602.63 469.91l3.625 4.09 3.632-4.09"/><path stroke="#000" d="M579 364h36v116h-36z"/></g><g fill="none" stroke-width="2"><path stroke="#000" d="M296 687v97M296 696h18M278 705h36M278 714h36M278 723h36M278 732h36M278 741h36M278 750h36M278 759h36M278 767h36M278 776h18"/><path stroke="#231F20" d="M290.331 697.508l-3.63-4.092-3.63 4.092M301.63 773.91l3.625 4.09 3.632-4.09"/><path stroke="#000" d="M278 687h36v97h-36z"/></g><g fill="none" stroke-width="2"><path stroke="#000" d="M898 687v97M898 696h18M880 705h36M880 714h36M880 723h36M880 732h36M880 741h36M880 750h36M880 759h36M880 767h36M880 776h18"/><path stroke="#231F20" d="M892.331 697.508l-3.63-4.092-3.63 4.092M903.63 773.91l3.625 4.09 3.632-4.09"/><path stroke="#000" d="M880 687h36v97h-36z"/></g><g fill="none" stroke="#231F20" stroke-width="2" stroke-linecap="square"><path d="M733 539v-1h-1"/><path stroke-dasharray="2.0222,6.0667" d="M725.934 538h-263.901"/><path d="M459 538h-1v1"/><path stroke-dasharray="1.964,5.8919" d="M458 544.892v209.162"/><path d="M458 757v1h1"/><path stroke-dasharray="2.0222,6.0667" d="M465.066 758h263.901"/><path d="M732 758h1v-1"/><path stroke-dasharray="1.964,5.8919" d="M733 751.108v-209.162"/></g><path fill="none" stroke="#231F20" stroke-width="2" d="M838.245 723.012c0-3.089-2.502-5.593-5.594-5.593-3.086 0-5.594 2.504-5.594 5.593s2.508 5.593 5.594 5.593c3.092-.001 5.594-2.504 5.594-5.593zm-5.245 25.988v17.7s-.349 2.3 2.313 2.3h.319s2.367.359 2.367-2.3v-32.7m-4.999 15v17.7c0 2.659-3.011 2.3-3.011 2.3h-.319c-2.661 0-2.67-2.3-2.67-2.3v-32.7m.009 12.332c0 2.662-2.662 2.668-2.662 2.668h-.32c-2.661 0-3.026-2.675-3.026-2.675v-15.057c0-2.659 3.026-2.269 3.026-2.269h17.249c2.658 0 2.724 2.269 2.724 2.269v15.057c0 2.662-2.724 2.675-2.724 2.675h-.322c-2.66 0-2.66-2.665-2.66-2.665M357.127 741.38l-1.089 4.385s-.639 2.582-3.221 1.942l-.311-.074s-2.584-.64-1.944-3.224l2.557-10.332.807-3.169c.754-3.068 4.574-2.908 4.574-2.908h10.312999999999999s3.817-.16 4.569 2.908l.807 3.223 2.559 10.306c.64 2.584-1.947 3.21-1.947 3.21l-.31.067c-2.582.64-3.221-1.946-3.221-1.946l-1.087-4.386m-.931-19.194c0-3.088-2.505-5.595-5.593-5.595-3.089 0-5.594 2.507-5.594 5.595 0 3.089 2.505 5.591 5.594 5.591 3.088 0 5.593-2.502 5.593-5.591zm-5.252 32.812v10.875s-.341 3.125-3.003 3.125h-.32s-2.677-.463-2.677-3.125v-10.875h-4.146l5.541-21.646m4.605 21.646v10.875s-.341 3.125 2.32 3.125h.319s2.36-.463 2.36-3.125v-10.875h4.464l-5.2-21.646"/>
    </g>
</svg>
            