<?xml version="1.0" standalone="no"?> 
<!DOCTYPE svg PUBLIC "-//W3C//DTD SVG 1.1//EN" "http://www.w3.org/Graphics/SVG/1.1/DTD/svg11.dtd">  
<svg xmlns="http://www.w3.org/2000/svg" width="598" height="595" viewBox="0 0 598 595">
	<g id="rooms">
		<path data-room="5000" fill="#fff" d="M233 310h132v46h-132z"/>
	</g>
    <g>
    	<path fill="none" stroke="#000" stroke-width="2" d="M59 20h480v142h-75v39h114v374h-558v-374h114v-39h-75zM232 309h-65v-109h266v109h-67"/><g fill="none" stroke="#000" stroke-width="2"><path d="M232 200v157h134v-157M366 238h67M366 276h67"/></g><path fill="none" stroke="#000" stroke-width="2" d="M280 200v109M298 200v109M316 200v109M298 209h18M280 218h36M280 227h36M280 236h36M280 245h36M280 255h36M280 264h36M280 273h36M280 282h36M280 291h36M280 300h18"/><g fill="none" stroke="#000" stroke-width="2" stroke-linecap="square" stroke-linejoin="round"><path d="M417 361h1v1"/><path stroke-dasharray="2,6" d="M418 368v182"/><path d="M418 553v1h-1"/><path stroke-dasharray="2,6" d="M411 554h-231"/><path d="M177 554h-1v-1"/><path stroke-dasharray="2,6" d="M176 547v-182"/><path d="M176 362v-1h1"/><path stroke-dasharray="2,6" d="M183 361h231"/></g><g fill="#231F20"><path d="M271.099 337.516l2.645-.291s.381 1.973 2.712 1.973c1.839 0 2.937-1.166 2.937-3.071 0-1.95-1.188-3.138-3.048-3.138-1.278 0-2.062.672-2.443 1.412l-2.488-.919.986-7.711 8.562-.067v2.219h-6.478l-.583 3.945c.561-.471 1.479-.964 3.093-.964 3.34 0 5.066 2.264 5.066 5.245 0 2.601-1.479 5.133-5.515 5.133-4.931 0-5.446-3.766-5.446-3.766zM284.592 333.37c0-3.743 1.166-8.047 5.716-8.047 4.595 0 5.626 4.259 5.626 8.047 0 3.766-1.098 7.912-5.648 7.912-4.685 0-5.694-4.124-5.694-7.912zm8.63 0c0-3.026-.673-5.94-2.959-5.94s-2.959 2.847-2.959 5.896.628 5.873 2.937 5.873c2.263-.001 2.981-2.759 2.981-5.829zM298.847 333.37c0-3.743 1.166-8.047 5.716-8.047 4.595 0 5.626 4.259 5.626 8.047 0 3.766-1.098 7.912-5.648 7.912-4.686 0-5.694-4.124-5.694-7.912zm8.63 0c0-3.026-.673-5.94-2.959-5.94s-2.959 2.847-2.959 5.896.628 5.873 2.937 5.873c2.263-.001 2.981-2.759 2.981-5.829zM313.102 333.37c0-3.743 1.166-8.047 5.716-8.047 4.595 0 5.626 4.259 5.626 8.047 0 3.766-1.098 7.912-5.648 7.912-4.686 0-5.694-4.124-5.694-7.912zm8.629 0c0-3.026-.673-5.94-2.959-5.94s-2.959 2.847-2.959 5.896.628 5.873 2.937 5.873c2.264-.001 2.981-2.759 2.981-5.829z"/></g><path fill="none" stroke="#231F20" stroke-width="2" d="M292.331 210.508l-3.63-4.092-3.63 4.092M303.63 298.615l3.625 4.09 3.632-4.09M403.144 215.454l-5.576-6.386-5.572 6.386M392.396 221.578l5.576 6.389 5.577-6.389M403.144 252.572l-5.576-6.386-5.572 6.386M392.396 258.695l5.576 6.389 5.577-6.389M403.144 288.887l-5.576-6.387-5.572 6.387M392.396 295.008l5.576 6.388 5.577-6.388"/><path fill="none" stroke="#000" stroke-width="2" d="M270 309h56"/>
    </g>
</svg>
            