<?xml version="1.0" standalone="no"?> 
<!DOCTYPE svg PUBLIC "-//W3C//DTD SVG 1.1//EN" "http://www.w3.org/Graphics/SVG/1.1/DTD/svg11.dtd"> 
              <svg xmlns="http://www.w3.org/2000/svg" width="1194" height="991" viewBox="0 0 1194 991">
                <g id="rooms">
                  <path data-room="2700" fill="#fff" d="M279 480h129v206h-129z"/>
                  <path data-room="2710" fill="#fff" d="M410 537h47v222h-47z"/>
                  <path data-room="2410" fill="#fff" d="M734 537h50v222h-50z"/>
                  <path data-room="2210" fill="#fff" d="M457 759h277v70h-277z"/>
                  <path data-room="2460" fill="#fff" d="M457 481h277v56h-277z"/>
                  <path data-room="2400" fill="#fff" d="M786 480h129v206h-129z"/>
                  <path data-room="2620" fill="#fff" d="M169 129h53v153h-53z"/>
                  <path data-room="2740" fill="#fff" d="M345 313h100v165h-100z"/>
                  <path data-room="2440" fill="#fff" d="M752 313h100v165h-100z"/>
                  <path data-room="2570" fill="#fff" d="M523 276h152v79h-152z"/>
                  <path data-room="2520" fill="#fff" d="M1026 129h53v153h-53z"/>
                  <path data-room="2590" fill="#fff" d="M523 21h150v89h-150z"/>
                  <path data-room="2550" fill="#fff" d="M523 112h150v89h-150z"/>
                  <path data-room="2500" fill="#fff" d="M675 21h167v180h-167z"/>
                  <path data-room="2540" fill="#fff" d="M844 21h180v180h-180z"/>
                  <path data-room="2600" fill="#fff" d="M224 21h175v180h-175z"/>
                  <path data-room="2100" fill="#fff" d="M21 688h116v282h-116z"/>
                  <path data-room="2130" fill="#fff" d="M139 688h138v141h-138z"/>
                  <path data-room="2120" fill="#fff" d="M139 831h138v139h-138z"/>
                  <path data-room="2200" fill="#fff" d="M279 831h165v105h-165z"/>
                  <path data-room="2220" fill="#fff" d="M446 831h299v105h-299z"/>
                  <path data-room="2240" fill="#fff" d="M747 831h168v105h-168z"/>
                  <path data-room="2300" fill="#fff" d="M917 831h153v139h-153z"/>
                  <path data-room="2340" fill="#fff" d="M917 750h74v79h-74z"/>
                </g>
                <g><path fill="none" stroke="#231F20" stroke-width="2" d="M278 804v-117h-258v284h258v-34h638v34h258v-284h-258v117M409 496v-17h-131v208h131v-10M853 480v-169M409 687v110M785 687v110"/><path fill="none" stroke="#231F20" stroke-width="2" d="M676 275h75v205h-75zM751 356h-75M751 441h-75M751 356h-75M751 399h-75M717.381 373.285l-6.365-7.289-6.363 7.289M705.114 380.274l6.365 7.289 6.358-7.289M717.381 415.652l-6.365-7.289-6.363 7.289M705.114 422.639l6.365 7.291 6.358-7.291M717.381 457.098l-6.365-7.293-6.363 7.293M705.114 464.084l6.365 7.292 6.358-7.292"/><path fill="none" stroke="#231F20" stroke-width="2" d="M446 275h76v205h-76zM344 312v167M1025 128v-108h-802v108M785 677v10h131v-208h-131v18"/><g fill="none" stroke-width="2"><path stroke="#000" d="M597 364v116M597 373h18M579 382h36M579 391h36M579 400h36M579 409h36M579 418h36M579 427h36M579 436h36M579 445h36M579 454h36M579 463h36M579 472h18"/><path stroke="#231F20" d="M591.331 374.508l-3.63-4.092-3.63 4.092M602.63 469.91l3.625 4.09 3.632-4.09"/><path stroke="#000" d="M579 364h36v116h-36z"/></g><g fill="none" stroke-width="2"><path stroke="#000" d="M296 687v97M296 696h18M278 705h36M278 714h36M278 723h36M278 732h36M278 741h36M278 750h36M278 759h36M278 767h36M278 776h18"/><path stroke="#231F20" d="M290.331 697.508l-3.63-4.092-3.63 4.092M301.63 773.91l3.625 4.09 3.632-4.09"/><path stroke="#000" d="M278 687h36v97h-36z"/></g><g fill="none" stroke-width="2"><path stroke="#000" d="M898 687v97M898 696h18M880 705h36M880 714h36M880 723h36M880 732h36M880 741h36M880 750h36M880 759h36M880 767h36M880 776h18"/><path stroke="#231F20" d="M892.331 697.508l-3.63-4.092-3.63 4.092M903.63 773.91l3.625 4.09 3.632-4.09"/><path stroke="#000" d="M880 687h36v97h-36z"/></g><g fill="none" stroke="#231F20" stroke-width="2" stroke-linecap="square"><path d="M733 539v-1h-1"/><path stroke-dasharray="2.0222,6.0667" d="M725.934 538h-263.901"/><path d="M459 538h-1v1"/><path stroke-dasharray="1.964,5.8919" d="M458 544.892v209.162"/><path d="M458 757v1h1"/><path stroke-dasharray="2.0222,6.0667" d="M465.066 758h263.901"/><path d="M732 758h1v-1"/><path stroke-dasharray="1.964,5.8919" d="M733 751.108v-209.162"/></g><path fill="none" stroke="#231F20" stroke-width="2" d="M222.923 268v15h-54.923v-155h54.923v107M445 937v-75M746 937v-75M138 731v194M223 850h55v64M138 850h57M992 830v-81h-76M940 830h131v141M223 276v36h188v-36h-188M1025 268v15h55v-155h-55v107M1025 276v36h-239v-36h239M522 52v187M674 52v187M400 20v119M843 52v187M223 202h63M344 202h118M571 202h49M675 202h49M792 202h100M956 202h69M522 111h48M626 111h48"/><g fill="#231F20"><path d="M310.361 126.831c3.147-3.045 8.29-8.112 8.29-10.799 0-1.382-.716-2.482-2.533-2.507-2.072 0-2.559 1.74-2.636 2.763l-3.02-.281c.256-2.124 1.766-4.862 5.835-4.862 2.917 0 5.425 1.51 5.425 4.811 0 3.659-4.555 7.933-7.498 10.594l7.754-.052v2.482h-11.617v-2.149zM324.865 120.895c0-5.425 2.098-9.75 6.832-9.75 4.811 0 5.425 3.89 5.425 3.864l-2.764.384c0 .026-.589-1.97-2.84-1.97-2.201 0-3.711 2.124-3.89 6.32.537-.972 1.766-2.405 4.247-2.405 3.147 0 5.477 2.226 5.477 6.04 0 3.915-2.841 6.013-5.962 6.013-5.015-.001-6.525-4.019-6.525-8.496zm9.621 2.405c0-2.175-1.458-3.583-3.198-3.583s-3.199 1.407-3.199 3.583c0 2.227 1.254 3.787 3.199 3.787 2.225 0 3.198-1.843 3.198-3.787zM340.367 120.332c0-4.273 1.331-9.187 6.525-9.187 5.246 0 6.423 4.862 6.423 9.187 0 4.298-1.254 9.033-6.448 9.033-5.349-.001-6.5-4.709-6.5-9.033zm9.851 0c0-3.455-.768-6.781-3.377-6.781-2.61 0-3.378 3.25-3.378 6.73 0 3.48.716 6.704 3.352 6.704 2.585-.001 3.403-3.148 3.403-6.653zM356.636 120.332c0-4.273 1.331-9.187 6.525-9.187 5.246 0 6.423 4.862 6.423 9.187 0 4.298-1.254 9.033-6.448 9.033-5.348-.001-6.5-4.709-6.5-9.033zm9.852 0c0-3.455-.768-6.781-3.377-6.781-2.61 0-3.378 3.25-3.378 6.73 0 3.48.716 6.704 3.352 6.704 2.584-.001 3.403-3.148 3.403-6.653z"/></g><g fill="#231F20"><path d="M570.708 73.878c3.147-3.045 8.29-8.112 8.29-10.799 0-1.382-.716-2.482-2.533-2.507-2.072 0-2.559 1.74-2.636 2.763l-3.02-.281c.256-2.124 1.766-4.862 5.835-4.862 2.917 0 5.425 1.51 5.425 4.811 0 3.659-4.555 7.933-7.498 10.594l7.754-.051v2.482h-11.617v-2.15zM584.957 72.112l3.02-.333s.435 2.251 3.096 2.251c2.099 0 3.353-1.331 3.353-3.505 0-2.227-1.356-3.583-3.48-3.583-1.458 0-2.354.768-2.789 1.612l-2.84-1.049 1.126-8.803 9.774-.077v2.533h-7.395l-.666 4.503c.64-.537 1.689-1.1 3.531-1.1 3.813 0 5.783 2.584 5.783 5.988 0 2.968-1.688 5.86-6.295 5.86-5.63.002-6.218-4.297-6.218-4.297zM600.025 72.394l2.891-.281s.41 2.021 2.814 2.021c2.688 0 3.48-2.508 3.531-6.244-.613.972-1.715 2.098-3.787 2.098-3.275 0-5.68-2.149-5.68-5.834 0-3.762 2.736-5.962 5.961-5.962 4.043 0 6.346 2.559 6.346 8.061 0 7.165-1.611 10.184-6.422 10.184-5.04 0-5.654-4.043-5.654-4.043zm8.955-8.24c0-2.15-1.229-3.788-3.225-3.788-2.021 0-3.225 1.638-3.225 3.788 0 2.175 1.203 3.71 3.225 3.71 1.895 0 3.225-1.484 3.225-3.71zM615.348 67.378c0-4.273 1.332-9.187 6.525-9.187 5.246 0 6.424 4.862 6.424 9.187 0 4.299-1.254 9.033-6.449 9.033-5.348 0-6.5-4.708-6.5-9.033zm9.851 0c0-3.455-.768-6.781-3.377-6.781s-3.377 3.25-3.377 6.73.715 6.704 3.352 6.704c2.584 0 3.402-3.147 3.402-6.653z"/></g><g fill="#231F20"><path d="M570.708 168.272c3.147-3.045 8.29-8.111 8.29-10.799 0-1.382-.716-2.481-2.533-2.508-2.072 0-2.559 1.74-2.636 2.764l-3.02-.281c.256-2.124 1.766-4.862 5.835-4.862 2.917 0 5.425 1.51 5.425 4.812 0 3.659-4.555 7.933-7.498 10.594l7.754-.052v2.482h-11.617v-2.15zM584.957 166.507l3.02-.333s.435 2.252 3.096 2.252c2.099 0 3.353-1.33 3.353-3.506 0-2.226-1.356-3.582-3.48-3.582-1.458 0-2.354.768-2.789 1.612l-2.84-1.05 1.126-8.803 9.774-.076v2.533h-7.395l-.666 4.504c.64-.538 1.689-1.101 3.531-1.101 3.813 0 5.783 2.585 5.783 5.988 0 2.968-1.688 5.859-6.295 5.859-5.63.002-6.218-4.297-6.218-4.297zM599.947 166.507l3.02-.333s.436 2.252 3.098 2.252c2.098 0 3.352-1.33 3.352-3.506 0-2.226-1.357-3.582-3.48-3.582-1.459 0-2.354.768-2.789 1.612l-2.84-1.05 1.125-8.803 9.775-.076v2.533h-7.395l-.666 4.504c.639-.538 1.689-1.101 3.531-1.101 3.812 0 5.783 2.585 5.783 5.988 0 2.968-1.689 5.859-6.295 5.859-5.629.002-6.219-4.297-6.219-4.297zM615.348 161.772c0-4.273 1.332-9.187 6.525-9.187 5.246 0 6.424 4.862 6.424 9.187 0 4.299-1.254 9.033-6.449 9.033-5.348.001-6.5-4.707-6.5-9.033zm9.851 0c0-3.454-.768-6.78-3.377-6.78s-3.377 3.249-3.377 6.729.715 6.704 3.352 6.704c2.584.001 3.402-3.147 3.402-6.653z"/></g><g fill="#231F20"><path d="M725.736 126.831c3.146-3.045 8.289-8.112 8.289-10.799 0-1.382-.715-2.482-2.533-2.507-2.072 0-2.559 1.74-2.635 2.763l-3.02-.281c.256-2.124 1.766-4.862 5.834-4.862 2.918 0 5.426 1.51 5.426 4.811 0 3.659-4.555 7.933-7.498 10.594l7.754-.052v2.482h-11.617v-2.149zM739.984 125.065l3.02-.333s.434 2.252 3.096 2.252c2.098 0 3.352-1.33 3.352-3.506 0-2.226-1.355-3.582-3.48-3.582-1.457 0-2.354.768-2.789 1.612l-2.84-1.049 1.127-8.803 9.773-.077v2.533h-7.395l-.666 4.503c.641-.537 1.689-1.1 3.531-1.1 3.814 0 5.783 2.584 5.783 5.988 0 2.968-1.688 5.859-6.295 5.859-5.629.002-6.217-4.297-6.217-4.297zM755.385 120.332c0-4.273 1.33-9.187 6.525-9.187 5.246 0 6.422 4.862 6.422 9.187 0 4.298-1.254 9.033-6.447 9.033-5.35-.001-6.5-4.709-6.5-9.033zm9.851 0c0-3.455-.768-6.781-3.377-6.781-2.611 0-3.379 3.25-3.379 6.73 0 3.48.717 6.704 3.352 6.704 2.586-.001 3.404-3.148 3.404-6.653zM771.654 120.332c0-4.273 1.33-9.187 6.525-9.187 5.246 0 6.422 4.862 6.422 9.187 0 4.298-1.254 9.033-6.447 9.033-5.349-.001-6.5-4.709-6.5-9.033zm9.852 0c0-3.455-.768-6.781-3.377-6.781-2.611 0-3.379 3.25-3.379 6.73 0 3.48.717 6.704 3.352 6.704 2.586-.001 3.404-3.148 3.404-6.653z"/></g><g fill="#231F20"><path d="M891.912 126.831c3.146-3.045 8.289-8.112 8.289-10.799 0-1.382-.715-2.482-2.533-2.507-2.072 0-2.559 1.74-2.635 2.763l-3.02-.281c.256-2.124 1.766-4.862 5.834-4.862 2.918 0 5.426 1.51 5.426 4.811 0 3.659-4.555 7.933-7.498 10.594l7.754-.052v2.482h-11.617v-2.149zM906.16 125.065l3.02-.333s.434 2.252 3.096 2.252c2.098 0 3.352-1.33 3.352-3.506 0-2.226-1.355-3.582-3.48-3.582-1.457 0-2.354.768-2.789 1.612l-2.84-1.049 1.127-8.803 9.773-.077v2.533h-7.395l-.666 4.503c.641-.537 1.689-1.1 3.531-1.1 3.814 0 5.783 2.584 5.783 5.988 0 2.968-1.688 5.859-6.295 5.859-5.629.002-6.217-4.297-6.217-4.297zM920.408 122.276l7.191-10.696h3.967l-.027 10.363 2.738-.025v2.405h-2.764v4.657h-2.789v-4.657h-8.316v-2.047zm8.342-.307l.053-7.958-5.246 8.01 5.193-.052zM936.756 120.332c0-4.273 1.33-9.187 6.525-9.187 5.246 0 6.422 4.862 6.422 9.187 0 4.298-1.254 9.033-6.447 9.033-5.35-.001-6.5-4.709-6.5-9.033zm9.851 0c0-3.455-.768-6.781-3.377-6.781-2.611 0-3.379 3.25-3.379 6.73 0 3.48.717 6.704 3.352 6.704 2.586-.001 3.404-3.148 3.404-6.653z"/></g><g fill="#231F20"><path d="M336.146 888.917c3.147-3.045 8.29-8.111 8.29-10.799 0-1.382-.716-2.481-2.533-2.508-2.072 0-2.559 1.74-2.636 2.764l-3.02-.281c.256-2.124 1.766-4.862 5.835-4.862 2.917 0 5.425 1.51 5.425 4.812 0 3.659-4.555 7.933-7.498 10.594l7.754-.052v2.482h-11.617v-2.15zM350.599 888.917c3.147-3.045 8.29-8.111 8.29-10.799 0-1.382-.716-2.481-2.533-2.508-2.072 0-2.559 1.74-2.636 2.764l-3.02-.281c.256-2.124 1.766-4.862 5.835-4.862 2.917 0 5.425 1.51 5.425 4.812 0 3.659-4.555 7.933-7.498 10.594l7.754-.052v2.482h-11.617v-2.15zM365.154 882.417c0-4.273 1.331-9.187 6.525-9.187 5.246 0 6.423 4.862 6.423 9.187 0 4.299-1.254 9.033-6.448 9.033-5.349 0-6.5-4.708-6.5-9.033zm9.851 0c0-3.454-.768-6.78-3.377-6.78-2.61 0-3.378 3.249-3.378 6.729s.716 6.704 3.352 6.704c2.585 0 3.403-3.147 3.403-6.653zM381.423 882.417c0-4.273 1.331-9.187 6.525-9.187 5.246 0 6.423 4.862 6.423 9.187 0 4.299-1.254 9.033-6.448 9.033-5.348 0-6.5-4.708-6.5-9.033zm9.852 0c0-3.454-.768-6.78-3.377-6.78-2.61 0-3.378 3.249-3.378 6.729s.716 6.704 3.352 6.704c2.585 0 3.403-3.147 3.403-6.653z"/></g><g fill="#231F20"><path d="M570.708 888.917c3.147-3.045 8.29-8.111 8.29-10.799 0-1.382-.716-2.481-2.533-2.508-2.072 0-2.559 1.74-2.636 2.764l-3.02-.281c.256-2.124 1.766-4.862 5.835-4.862 2.917 0 5.425 1.51 5.425 4.812 0 3.659-4.555 7.933-7.498 10.594l7.754-.052v2.482h-11.617v-2.15zM585.162 888.917c3.147-3.045 8.29-8.111 8.29-10.799 0-1.382-.716-2.481-2.533-2.508-2.072 0-2.559 1.74-2.636 2.764l-3.02-.281c.256-2.124 1.766-4.862 5.835-4.862 2.917 0 5.425 1.51 5.425 4.812 0 3.659-4.555 7.933-7.498 10.594l7.754-.052v2.482h-11.617v-2.15zM599.615 888.917c3.146-3.045 8.289-8.111 8.289-10.799 0-1.382-.715-2.481-2.533-2.508-2.072 0-2.559 1.74-2.635 2.764l-3.02-.281c.256-2.124 1.766-4.862 5.834-4.862 2.918 0 5.426 1.51 5.426 4.812 0 3.659-4.555 7.933-7.498 10.594l7.754-.052v2.482h-11.617v-2.15zM614.17 882.417c0-4.273 1.33-9.187 6.525-9.187 5.246 0 6.422 4.862 6.422 9.187 0 4.299-1.254 9.033-6.447 9.033-5.35 0-6.5-4.708-6.5-9.033zm9.851 0c0-3.454-.768-6.78-3.377-6.78-2.611 0-3.379 3.249-3.379 6.729s.717 6.704 3.352 6.704c2.586 0 3.404-3.147 3.404-6.653z"/></g><g fill="#231F20"><path d="M799.26 888.917c3.146-3.045 8.289-8.111 8.289-10.799 0-1.382-.715-2.481-2.533-2.508-2.072 0-2.559 1.74-2.635 2.764l-3.02-.281c.256-2.124 1.766-4.862 5.834-4.862 2.918 0 5.426 1.51 5.426 4.812 0 3.659-4.555 7.933-7.498 10.594l7.754-.052v2.482h-11.617v-2.15zM813.713 888.917c3.146-3.045 8.289-8.111 8.289-10.799 0-1.382-.715-2.481-2.533-2.508-2.072 0-2.559 1.74-2.635 2.764l-3.02-.281c.256-2.124 1.766-4.862 5.834-4.862 2.918 0 5.426 1.51 5.426 4.812 0 3.659-4.555 7.933-7.498 10.594l7.754-.052v2.482h-11.617v-2.15zM827.219 884.362l7.189-10.696h3.967l-.025 10.363 2.738-.025v2.405h-2.764v4.657h-2.789v-4.657h-8.316v-2.047zm8.342-.307l.051-7.958-5.246 8.01 5.195-.052zM843.564 882.417c0-4.273 1.332-9.187 6.525-9.187 5.246 0 6.424 4.862 6.424 9.187 0 4.299-1.254 9.033-6.449 9.033-5.347 0-6.5-4.708-6.5-9.033zm9.852 0c0-3.454-.768-6.78-3.377-6.78s-3.377 3.249-3.377 6.729.715 6.704 3.352 6.704c2.584 0 3.402-3.147 3.402-6.653z"/></g><g fill="#231F20"><path d="M960.369 909.64c3.146-3.045 8.289-8.111 8.289-10.799 0-1.382-.715-2.481-2.533-2.508-2.072 0-2.559 1.74-2.635 2.764l-3.02-.281c.256-2.124 1.766-4.862 5.834-4.862 2.918 0 5.426 1.51 5.426 4.812 0 3.659-4.555 7.933-7.498 10.594l7.754-.052v2.482h-11.617v-2.15zM974.232 907.541l2.943-.281c-.051.307.486 2.61 3.172 2.61 2.074 0 3.225-1.306 3.225-3.045 0-2.021-1.279-3.455-4.734-3.199v-2.328c2.994.256 4.273-.998 4.273-2.713 0-1.458-1.074-2.405-2.609-2.431-2.713 0-2.943 2.328-2.943 2.38l-2.736-.308s.332-4.273 5.68-4.273c2.994 0 5.578 1.331 5.578 4.479 0 1.868-1.049 3.147-2.609 3.915 2.021.768 3.146 2.329 3.146 4.401 0 3.736-3.02 5.425-6.141 5.425-5.989 0-6.245-4.632-6.245-4.632zM989.633 903.14c0-4.273 1.332-9.187 6.525-9.187 5.246 0 6.424 4.862 6.424 9.187 0 4.299-1.254 9.033-6.449 9.033-5.348 0-6.5-4.708-6.5-9.033zm9.851 0c0-3.454-.768-6.78-3.377-6.78s-3.377 3.249-3.377 6.729.715 6.704 3.352 6.704c2.584 0 3.402-3.147 3.402-6.653zM1005.902 903.14c0-4.273 1.332-9.187 6.525-9.187 5.246 0 6.424 4.862 6.424 9.187 0 4.299-1.254 9.033-6.449 9.033-5.347 0-6.5-4.708-6.5-9.033zm9.852 0c0-3.454-.768-6.78-3.377-6.78s-3.377 3.249-3.377 6.729.715 6.704 3.352 6.704c2.584 0 3.402-3.147 3.402-6.653z"/></g><g fill="#231F20"><path d="M168.224 909.64c3.147-3.045 8.29-8.111 8.29-10.799 0-1.382-.716-2.481-2.533-2.508-2.072 0-2.559 1.74-2.636 2.764l-3.02-.281c.256-2.124 1.766-4.862 5.835-4.862 2.917 0 5.425 1.51 5.425 4.812 0 3.659-4.555 7.933-7.498 10.594l7.754-.052v2.482h-11.617v-2.15zM185.825 897.792c-.87.64-2.124 1.126-3.199 1.229l-.307-2.508c1.586-.23 2.892-1.101 3.607-2.124h2.841v17.4h-3.045l.103-13.997zM193.293 909.64c3.147-3.045 8.29-8.111 8.29-10.799 0-1.382-.716-2.481-2.533-2.508-2.072 0-2.559 1.74-2.636 2.764l-3.02-.281c.256-2.124 1.766-4.862 5.835-4.862 2.917 0 5.425 1.51 5.425 4.812 0 3.659-4.555 7.933-7.498 10.594l7.754-.052v2.482h-11.617v-2.15zM207.848 903.14c0-4.273 1.331-9.187 6.525-9.187 5.246 0 6.423 4.862 6.423 9.187 0 4.299-1.254 9.033-6.448 9.033-5.348 0-6.5-4.708-6.5-9.033zm9.852 0c0-3.454-.768-6.78-3.377-6.78-2.61 0-3.378 3.249-3.378 6.729s.716 6.704 3.352 6.704c2.584 0 3.403-3.147 3.403-6.653z"/></g><g fill="#231F20"><path d="M167.583 760.339c3.147-3.045 8.29-8.111 8.29-10.799 0-1.382-.716-2.481-2.533-2.508-2.072 0-2.559 1.74-2.636 2.764l-3.02-.281c.256-2.124 1.766-4.862 5.835-4.862 2.917 0 5.425 1.51 5.425 4.812 0 3.659-4.555 7.933-7.498 10.594l7.754-.052v2.482h-11.617v-2.15zM185.184 748.491c-.87.64-2.124 1.126-3.199 1.229l-.307-2.508c1.586-.23 2.892-1.101 3.607-2.124h2.841v17.4h-3.045l.103-13.997zM192.064 758.24l2.942-.281c-.051.307.486 2.61 3.173 2.61 2.073 0 3.225-1.306 3.225-3.045 0-2.021-1.279-3.455-4.734-3.199v-2.328c2.994.256 4.273-.998 4.273-2.713 0-1.458-1.074-2.405-2.609-2.431-2.713 0-2.943 2.328-2.943 2.38l-2.737-.308s.332-4.273 5.681-4.273c2.993 0 5.578 1.331 5.578 4.479 0 1.868-1.049 3.147-2.61 3.915 2.021.768 3.147 2.329 3.147 4.401 0 3.736-3.02 5.425-6.142 5.425-5.988 0-6.244-4.632-6.244-4.632zM207.464 753.839c0-4.273 1.331-9.187 6.525-9.187 5.246 0 6.423 4.862 6.423 9.187 0 4.299-1.254 9.033-6.448 9.033-5.348 0-6.5-4.708-6.5-9.033zm9.852 0c0-3.454-.768-6.78-3.377-6.78-2.61 0-3.378 3.249-3.378 6.729s.716 6.704 3.352 6.704c2.585 0 3.403-3.147 3.403-6.653z"/></g><g fill="#231F20"><path d="M316.931 594.749c3.147-3.045 8.29-8.111 8.29-10.799 0-1.382-.716-2.481-2.533-2.508-2.072 0-2.559 1.74-2.636 2.764l-3.02-.281c.256-2.124 1.766-4.862 5.835-4.862 2.917 0 5.425 1.51 5.425 4.812 0 3.659-4.555 7.933-7.498 10.594l7.754-.052v2.482h-11.617v-2.15zM330.565 579.574h11.08v2.201c-.589 1.074-4.273 7.907-6.807 15.123h-3.097c2.201-6.064 4.529-10.696 6.781-14.765h-7.958v-2.559zM343.791 588.249c0-4.273 1.331-9.187 6.525-9.187 5.246 0 6.423 4.862 6.423 9.187 0 4.299-1.254 9.033-6.448 9.033-5.349 0-6.5-4.708-6.5-9.033zm9.851 0c0-3.454-.768-6.78-3.377-6.78-2.61 0-3.378 3.249-3.378 6.729s.716 6.704 3.352 6.704c2.585 0 3.403-3.147 3.403-6.653zM360.06 588.249c0-4.273 1.331-9.187 6.525-9.187 5.246 0 6.423 4.862 6.423 9.187 0 4.299-1.254 9.033-6.448 9.033-5.349 0-6.5-4.708-6.5-9.033zm9.852 0c0-3.454-.768-6.78-3.377-6.78-2.61 0-3.378 3.249-3.378 6.729s.716 6.704 3.352 6.704c2.584 0 3.403-3.147 3.403-6.653z"/></g><g fill="#231F20"><path d="M366.205 404.14c3.147-3.045 8.29-8.111 8.29-10.799 0-1.382-.716-2.481-2.533-2.508-2.072 0-2.559 1.74-2.636 2.764l-3.02-.281c.256-2.124 1.766-4.862 5.835-4.862 2.917 0 5.425 1.51 5.425 4.812 0 3.659-4.555 7.933-7.498 10.594l7.754-.052v2.482h-11.617v-2.15zM379.838 388.965h11.08v2.201c-.589 1.074-4.273 7.907-6.807 15.123h-3.097c2.201-6.064 4.529-10.696 6.781-14.765h-7.958v-2.559zM391.913 399.585l7.19-10.696h3.967l-.026 10.363 2.738-.025v2.405h-2.764v4.657h-2.789v-4.657h-8.316v-2.047zm8.341-.308l.052-7.958-5.246 8.01 5.194-.052zM408.259 397.64c0-4.273 1.331-9.187 6.525-9.187 5.246 0 6.423 4.862 6.423 9.187 0 4.299-1.254 9.033-6.448 9.033-5.348 0-6.5-4.708-6.5-9.033zm9.852 0c0-3.454-.768-6.78-3.377-6.78-2.61 0-3.378 3.249-3.378 6.729s.716 6.704 3.352 6.704c2.584 0 3.403-3.147 3.403-6.653z"/></g><g fill="#231F20"><path d="M775.08 404.14c3.146-3.045 8.289-8.111 8.289-10.799 0-1.382-.715-2.481-2.533-2.508-2.072 0-2.559 1.74-2.635 2.764l-3.02-.281c.256-2.124 1.766-4.862 5.834-4.862 2.918 0 5.426 1.51 5.426 4.812 0 3.659-4.555 7.933-7.498 10.594l7.754-.052v2.482h-11.617v-2.15zM788.586 399.585l7.189-10.696h3.967l-.025 10.363 2.738-.025v2.405h-2.764v4.657h-2.789v-4.657h-8.316v-2.047zm8.342-.308l.051-7.958-5.246 8.01 5.195-.052zM803.883 399.585l7.191-10.696h3.967l-.027 10.363 2.738-.025v2.405h-2.764v4.657h-2.789v-4.657h-8.316v-2.047zm8.342-.308l.053-7.958-5.246 8.01 5.193-.052zM820.23 397.64c0-4.273 1.33-9.187 6.525-9.187 5.246 0 6.422 4.862 6.422 9.187 0 4.299-1.254 9.033-6.447 9.033-5.349 0-6.5-4.708-6.5-9.033zm9.852 0c0-3.454-.768-6.78-3.377-6.78-2.611 0-3.379 3.249-3.379 6.729s.717 6.704 3.352 6.704c2.586 0 3.404-3.147 3.404-6.653z"/></g><g fill="#231F20"><path d="M570.681 802.421c3.147-3.045 8.29-8.111 8.29-10.799 0-1.382-.716-2.481-2.533-2.508-2.072 0-2.559 1.74-2.636 2.764l-3.02-.281c.256-2.124 1.766-4.862 5.835-4.862 2.917 0 5.425 1.51 5.425 4.812 0 3.659-4.555 7.933-7.498 10.594l7.754-.052v2.482h-11.617v-2.15zM585.134 802.421c3.147-3.045 8.29-8.111 8.29-10.799 0-1.382-.716-2.481-2.533-2.508-2.072 0-2.559 1.74-2.636 2.764l-3.02-.281c.256-2.124 1.766-4.862 5.835-4.862 2.917 0 5.425 1.51 5.425 4.812 0 3.659-4.555 7.933-7.498 10.594l7.754-.052v2.482h-11.617v-2.15zM602.734 790.573c-.869.64-2.123 1.126-3.199 1.229l-.307-2.508c1.586-.23 2.893-1.101 3.607-2.124h2.842v17.4h-3.045l.102-13.997zM610.408 795.921c0-4.273 1.33-9.187 6.525-9.187 5.246 0 6.422 4.862 6.422 9.187 0 4.299-1.254 9.033-6.447 9.033-5.349 0-6.5-4.708-6.5-9.033zm9.852 0c0-3.454-.768-6.78-3.377-6.78-2.611 0-3.379 3.249-3.379 6.729s.717 6.704 3.352 6.704c2.585 0 3.404-3.147 3.404-6.653z"/></g><g fill="#231F20"><path d="M570.681 519.87c3.147-3.045 8.29-8.111 8.29-10.799 0-1.382-.716-2.481-2.533-2.508-2.072 0-2.559 1.74-2.636 2.764l-3.02-.281c.256-2.124 1.766-4.862 5.835-4.862 2.917 0 5.425 1.51 5.425 4.812 0 3.659-4.555 7.933-7.498 10.594l7.754-.052v2.482h-11.617v-2.15zM584.187 515.315l7.19-10.696h3.967l-.026 10.363 2.739-.025v2.405h-2.764v4.657h-2.789v-4.657h-8.316v-2.047zm8.342-.307l.052-7.958-5.246 8.01 5.194-.052zM600.482 513.934c0-5.425 2.098-9.75 6.832-9.75 4.811 0 5.426 3.89 5.426 3.864l-2.764.384c0 .025-.59-1.971-2.84-1.971-2.201 0-3.711 2.124-3.891 6.321.537-.973 1.766-2.405 4.248-2.405 3.146 0 5.477 2.226 5.477 6.039 0 3.915-2.842 6.013-5.963 6.013-5.015 0-6.525-4.018-6.525-8.495zm9.622 2.405c0-2.175-1.457-3.583-3.197-3.583s-3.199 1.408-3.199 3.583c0 2.227 1.254 3.787 3.199 3.787 2.224 0 3.197-1.843 3.197-3.787zM615.984 513.37c0-4.273 1.332-9.187 6.525-9.187 5.246 0 6.424 4.862 6.424 9.187 0 4.299-1.254 9.033-6.449 9.033-5.347 0-6.5-4.708-6.5-9.033zm9.852 0c0-3.454-.768-6.78-3.377-6.78s-3.377 3.249-3.377 6.729.715 6.704 3.352 6.704c2.584 0 3.402-3.147 3.402-6.653z"/></g><g fill="#231F20"><path d="M570.681 327.651c3.147-3.045 8.29-8.111 8.29-10.799 0-1.382-.716-2.481-2.533-2.508-2.072 0-2.559 1.74-2.636 2.764l-3.02-.281c.256-2.124 1.766-4.862 5.835-4.862 2.917 0 5.425 1.51 5.425 4.812 0 3.659-4.555 7.933-7.498 10.594l7.754-.052v2.482h-11.617v-2.15zM584.929 325.886l3.02-.333s.435 2.252 3.096 2.252c2.099 0 3.353-1.33 3.353-3.506 0-2.226-1.356-3.582-3.48-3.582-1.458 0-2.354.768-2.789 1.612l-2.84-1.05 1.126-8.803 9.774-.076v2.533h-7.395l-.666 4.504c.64-.538 1.689-1.101 3.531-1.101 3.813 0 5.783 2.585 5.783 5.988 0 2.968-1.688 5.859-6.295 5.859-5.629.002-6.218-4.297-6.218-4.297zM599.051 312.477h11.08v2.201c-.59 1.074-4.273 7.907-6.807 15.123h-3.098c2.201-6.064 4.529-10.696 6.781-14.765h-7.957v-2.559zM612.275 321.151c0-4.273 1.332-9.187 6.525-9.187 5.246 0 6.424 4.862 6.424 9.187 0 4.299-1.254 9.033-6.449 9.033-5.347.001-6.5-4.707-6.5-9.033zm9.852 0c0-3.454-.768-6.78-3.377-6.78s-3.377 3.249-3.377 6.729.715 6.704 3.352 6.704c2.584.001 3.402-3.147 3.402-6.653z"/></g><g fill="#231F20"><path d="M201.525 242.892c-3.045-3.147-8.111-8.29-10.799-8.29-1.382 0-2.481.716-2.508 2.533 0 2.072 1.74 2.559 2.764 2.636l-.281 3.02c-2.124-.256-4.862-1.766-4.862-5.835 0-2.917 1.51-5.425 4.812-5.425 3.659 0 7.933 4.555 10.594 7.498l-.052-7.754h2.482v11.617h-2.15zM195.588 228.388c-5.425 0-9.75-2.098-9.75-6.832 0-4.811 3.89-5.425 3.864-5.425l.384 2.764c.025 0-1.971.589-1.971 2.84 0 2.201 2.124 3.711 6.321 3.89-.973-.537-2.405-1.766-2.405-4.247 0-3.147 2.226-5.477 6.039-5.477 3.915 0 6.013 2.841 6.013 5.962 0 5.015-4.017 6.525-8.495 6.525zm2.406-9.621c-2.175 0-3.583 1.458-3.583 3.198s1.408 3.199 3.583 3.199c2.227 0 3.787-1.254 3.787-3.199 0-2.226-1.843-3.198-3.787-3.198zM201.525 213.32c-3.045-3.147-8.111-8.29-10.799-8.29-1.382 0-2.481.716-2.508 2.533 0 2.072 1.74 2.559 2.764 2.636l-.281 3.02c-2.124-.256-4.862-1.766-4.862-5.835 0-2.917 1.51-5.425 4.812-5.425 3.659 0 7.933 4.555 10.594 7.498l-.052-7.754h2.482v11.617h-2.15zM195.025 198.765c-4.273 0-9.187-1.331-9.187-6.525 0-5.246 4.862-6.423 9.187-6.423 4.299 0 9.033 1.254 9.033 6.448 0 5.348-4.708 6.5-9.033 6.5zm0-9.852c-3.454 0-6.78.768-6.78 3.377 0 2.61 3.249 3.378 6.729 3.378s6.704-.716 6.704-3.352c0-2.585-3.147-3.403-6.653-3.403z"/></g><g fill="#231F20"><path d="M1058 242.903c-3.045-3.147-8.111-8.29-10.799-8.29-1.381 0-2.48.716-2.508 2.533 0 2.072 1.74 2.559 2.764 2.636l-.281 3.02c-2.123-.256-4.861-1.766-4.861-5.835 0-2.917 1.51-5.425 4.811-5.425 3.66 0 7.934 4.555 10.594 7.498l-.051-7.754h2.482v11.617h-2.151zM1056.234 228.655l-.332-3.02s2.252-.435 2.252-3.096c0-2.099-1.33-3.353-3.506-3.353-2.227 0-3.582 1.356-3.582 3.48 0 1.458.768 2.354 1.611 2.789l-1.049 2.84-8.803-1.126-.076-9.774h2.533v7.395l4.504.666c-.539-.64-1.102-1.689-1.102-3.531 0-3.813 2.586-5.783 5.988-5.783 2.969 0 5.859 1.688 5.859 6.295.002 5.629-4.297 6.218-4.297 6.218zM1058 213.689c-3.045-3.147-8.111-8.29-10.799-8.29-1.381 0-2.48.716-2.508 2.533 0 2.072 1.74 2.559 2.764 2.636l-.281 3.02c-2.123-.256-4.861-1.766-4.861-5.835 0-2.917 1.51-5.425 4.811-5.425 3.66 0 7.934 4.555 10.594 7.498l-.051-7.754h2.482v11.617h-2.151zM1051.5 199.135c-4.273 0-9.186-1.331-9.186-6.525 0-5.246 4.861-6.423 9.186-6.423 4.299 0 9.033 1.254 9.033 6.448 0 5.348-4.707 6.5-9.033 6.5zm0-9.852c-3.453 0-6.779.768-6.779 3.377 0 2.61 3.248 3.378 6.729 3.378s6.705-.716 6.705-3.352c-.001-2.584-3.149-3.403-6.655-3.403z"/></g><g fill="#231F20"><path d="M442.453 665.395c-3.045-3.147-8.111-8.289-10.799-8.289-1.382 0-2.481.716-2.508 2.532 0 2.072 1.74 2.559 2.764 2.636l-.281 3.02c-2.124-.256-4.862-1.766-4.862-5.835 0-2.916 1.51-5.424 4.812-5.424 3.659 0 7.933 4.554 10.594 7.497l-.052-7.753h2.482v11.616h-2.15zM427.278 651.762v-11.08h2.201c1.074.589 7.907 4.273 15.123 6.807v3.097c-6.064-2.201-10.696-4.529-14.765-6.781v7.958h-2.559zM430.605 635.234c.64.87 1.126 2.124 1.229 3.199l-2.508.307c-.23-1.586-1.101-2.892-2.124-3.607v-2.841h17.4v3.045l-13.997-.103zM435.953 627.562c-4.273 0-9.187-1.331-9.187-6.525 0-5.246 4.862-6.423 9.187-6.423 4.299 0 9.033 1.254 9.033 6.448 0 5.348-4.708 6.5-9.033 6.5zm0-9.852c-3.454 0-6.78.768-6.78 3.377 0 2.61 3.249 3.378 6.729 3.378s6.704-.716 6.704-3.352c0-2.585-3.148-3.403-6.653-3.403z"/></g><g fill="#231F20"><path d="M766.234 666.652c-3.045-3.147-8.111-8.289-10.799-8.289-1.383 0-2.482.715-2.508 2.532 0 2.072 1.74 2.559 2.764 2.636l-.281 3.02c-2.125-.256-4.863-1.766-4.863-5.835 0-2.916 1.51-5.424 4.812-5.424 3.658 0 7.932 4.554 10.594 7.497l-.053-7.753h2.482v11.616h-2.148zM761.68 653.147l-10.697-7.19v-3.967l10.363.026-.025-2.738h2.406v2.764h4.656v2.789h-4.656v8.316h-2.047zm-.309-8.341l-7.957-.052 8.01 5.246-.053-5.194zM754.387 633.985c.639.87 1.125 2.124 1.229 3.199l-2.508.307c-.23-1.586-1.102-2.892-2.125-3.607v-2.841h17.4v3.045l-13.996-.103zM759.734 626.312c-4.273 0-9.188-1.331-9.188-6.525 0-5.246 4.863-6.423 9.188-6.423 4.299 0 9.033 1.254 9.033 6.448.001 5.349-4.708 6.5-9.033 6.5zm0-9.851c-3.455 0-6.781.768-6.781 3.377 0 2.61 3.25 3.378 6.73 3.378s6.703-.716 6.703-3.352c.001-2.585-3.146-3.403-6.652-3.403z"/></g><g fill="#231F20"><path d="M818.377 597.667c3.146-3.045 8.289-8.111 8.289-10.799 0-1.382-.715-2.481-2.533-2.508-2.072 0-2.559 1.74-2.635 2.764l-3.02-.281c.256-2.124 1.766-4.862 5.834-4.862 2.918 0 5.426 1.51 5.426 4.812 0 3.659-4.555 7.933-7.498 10.594l7.754-.052v2.482h-11.617v-2.15zM831.883 593.112l7.189-10.696h3.967l-.025 10.363 2.738-.025v2.405h-2.764v4.657h-2.789v-4.657h-8.316v-2.047zm8.342-.307l.051-7.958-5.246 8.01 5.195-.052zM848.229 591.167c0-4.273 1.332-9.187 6.525-9.187 5.246 0 6.424 4.862 6.424 9.187 0 4.299-1.254 9.033-6.449 9.033-5.348 0-6.5-4.708-6.5-9.033zm9.851 0c0-3.454-.768-6.78-3.377-6.78s-3.377 3.249-3.377 6.729.715 6.704 3.352 6.704c2.584 0 3.402-3.147 3.402-6.653zM864.498 591.167c0-4.273 1.332-9.187 6.525-9.187 5.246 0 6.424 4.862 6.424 9.187 0 4.299-1.254 9.033-6.449 9.033-5.348 0-6.5-4.708-6.5-9.033zm9.852 0c0-3.454-.768-6.78-3.377-6.78s-3.377 3.249-3.377 6.729.715 6.704 3.352 6.704c2.583 0 3.402-3.147 3.402-6.653z"/></g><g fill="#231F20"><path d="M923.826 794.522c3.146-3.045 8.289-8.111 8.289-10.799 0-1.382-.715-2.481-2.533-2.508-2.072 0-2.559 1.74-2.635 2.764l-3.02-.281c.256-2.124 1.766-4.862 5.834-4.862 2.918 0 5.426 1.51 5.426 4.812 0 3.659-4.555 7.933-7.498 10.594l7.754-.052v2.482h-11.617v-2.15zM937.459 792.424l2.943-.281c-.051.307.486 2.61 3.172 2.61 2.074 0 3.225-1.306 3.225-3.045 0-2.021-1.279-3.455-4.734-3.199v-2.328c2.994.256 4.273-.998 4.273-2.713 0-1.458-1.074-2.405-2.609-2.431-2.713 0-2.943 2.328-2.943 2.38l-2.736-.308s.332-4.273 5.68-4.273c2.994 0 5.578 1.331 5.578 4.479 0 1.868-1.049 3.147-2.609 3.915 2.021.768 3.146 2.329 3.146 4.401 0 3.736-3.02 5.425-6.141 5.425-5.989 0-6.245-4.632-6.245-4.632zM951.709 789.968l7.189-10.696h3.967l-.025 10.363 2.738-.025v2.405h-2.764v4.657h-2.789v-4.657h-8.316v-2.047zm8.342-.308l.051-7.958-5.246 8.01 5.195-.052zM967.824 788.022c0-4.273 1.332-9.187 6.525-9.187 5.246 0 6.424 4.862 6.424 9.187 0 4.299-1.254 9.033-6.449 9.033-5.347.001-6.5-4.707-6.5-9.033zm9.852 0c0-3.454-.768-6.78-3.377-6.78s-3.377 3.249-3.377 6.729.715 6.704 3.352 6.704c2.583.001 3.402-3.147 3.402-6.653z"/></g><g fill="#231F20"><path d="M43.294 844.53c3.147-3.045 8.291-8.111 8.291-10.799 0-1.382-.717-2.481-2.533-2.508-2.073 0-2.559 1.74-2.636 2.764l-3.02-.281c.256-2.124 1.766-4.862 5.834-4.862 2.917 0 5.425 1.51 5.425 4.812 0 3.659-4.555 7.933-7.498 10.594l7.754-.052v2.482h-11.617v-2.15zM60.895 832.683c-.87.64-2.124 1.126-3.199 1.229l-.307-2.508c1.587-.23 2.892-1.101 3.608-2.124h2.84v17.4h-3.045l.103-13.997zM68.568 838.03c0-4.273 1.331-9.187 6.525-9.187 5.246 0 6.423 4.862 6.423 9.187 0 4.299-1.254 9.033-6.448 9.033-5.348 0-6.5-4.708-6.5-9.033zm9.852 0c0-3.454-.768-6.78-3.378-6.78-2.61 0-3.377 3.249-3.377 6.729s.716 6.704 3.352 6.704c2.585.001 3.403-3.147 3.403-6.653zM84.838 838.03c0-4.273 1.331-9.187 6.525-9.187 5.246 0 6.423 4.862 6.423 9.187 0 4.299-1.254 9.033-6.448 9.033-5.348 0-6.5-4.708-6.5-9.033zm9.852 0c0-3.454-.768-6.78-3.378-6.78-2.61 0-3.377 3.249-3.377 6.729s.716 6.704 3.352 6.704c2.584.001 3.403-3.147 3.403-6.653z"/></g><path fill="none" stroke="#231F20" stroke-width="2" d="M522 356h154M620 275h56M522 275h56M916 914v-84h-638v20M839.245 722.012c0-3.089-2.502-5.593-5.594-5.593-3.086 0-5.594 2.504-5.594 5.593s2.508 5.593 5.594 5.593c3.092-.001 5.594-2.504 5.594-5.593zm-5.245 25.988v17.7s-.349 2.3 2.313 2.3h.319s2.367.359 2.367-2.3v-32.7m-4.999 15v17.7c0 2.659-3.011 2.3-3.011 2.3h-.319c-2.661 0-2.67-2.3-2.67-2.3v-32.7m.009 12.332c0 2.662-2.662 2.668-2.662 2.668h-.32c-2.661 0-3.026-2.675-3.026-2.675v-15.057c0-2.659 3.026-2.269 3.026-2.269h17.249c2.658 0 2.724 2.269 2.724 2.269v15.057c0 2.662-2.724 2.675-2.724 2.675h-.322c-2.66 0-2.66-2.665-2.66-2.665M350.127 740.38l-1.089 4.385s-.639 2.582-3.221 1.942l-.311-.074s-2.584-.64-1.944-3.224l2.557-10.332.807-3.169c.754-3.068 4.574-2.908 4.574-2.908h10.312999999999999s3.817-.16 4.569 2.908l.807 3.223 2.559 10.306c.64 2.584-1.947 3.21-1.947 3.21l-.31.067c-2.582.64-3.221-1.946-3.221-1.946l-1.087-4.386m-.931-19.194c0-3.088-2.505-5.595-5.593-5.595-3.089 0-5.594 2.507-5.594 5.595 0 3.089 2.505 5.591 5.594 5.591 3.088 0 5.593-2.502 5.593-5.591zm-5.252 32.812v10.875s-.341 3.125-3.003 3.125h-.32s-2.677-.463-2.677-3.125v-10.875h-4.146l5.541-21.646m4.605 21.646v10.875s-.341 3.125 2.32 3.125h.319s2.36-.463 2.36-3.125v-10.875h4.464l-5.2-21.646M785 536v105M409 640v-104"/></g></svg>
           